<?xml version="1.0" encoding="UTF-8"?>
<svg version="1.1" xmlns="http://www.w3.org/2000/svg" width="500" height="500">
<path d="M0 0 C0.7643335 0.05188477 1.52866699 0.10376953 2.31616211 0.15722656 C5.00466954 0.35359445 7.68942661 0.57942621 10.375 0.8125 C11.42155762 0.90160645 12.46811523 0.99071289 13.54638672 1.08251953 C37.4528814 3.19385989 60.59117703 7.18200248 83.375 14.8125 C84.16567871 15.07256836 84.95635742 15.33263672 85.77099609 15.60058594 C97.5389987 19.51765994 108.37836358 24.5705279 119.20605469 30.60449219 C121.21517976 31.7234871 123.23441801 32.82115704 125.2578125 33.9140625 C132.24416812 37.73909455 138.60307457 42.01649288 144.8515625 46.9296875 C146.98730926 48.5232323 148.95188501 49.73176796 151.375 50.8125 C151.97183594 50.27882812 152.56867188 49.74515625 153.18359375 49.1953125 C165.75178917 38.40123084 180.46309386 30.85743645 195.375 23.8125 C196.00164551 23.5124707 196.62829102 23.21244141 197.27392578 22.90332031 C224.78667335 9.84135318 254.63100778 4.01754088 284.8125 1.625 C285.86566406 1.5410498 286.91882813 1.45709961 288.00390625 1.37060547 C293.44695653 0.97584791 298.89177604 0.70541767 304.34765625 0.57421875 C305.382854 0.54674561 306.41805176 0.51927246 307.48461914 0.4909668 C311.71871782 0.96197853 314.34552338 2.63595529 317.125 5.8125 C319.43431482 9.50740372 319.49341248 12.53794248 319.47265625 16.79296875 C319.46943359 17.95634766 319.46621094 19.11972656 319.46289062 20.31835938 C319.45451172 21.53330078 319.44613281 22.74824219 319.4375 24 C319.43298828 25.22654297 319.42847656 26.45308594 319.42382812 27.71679688 C319.41203065 30.74874668 319.39556921 33.78059906 319.375 36.8125 C320.37297607 36.78893433 320.37297607 36.78893433 321.39111328 36.76489258 C324.4273212 36.70224403 327.46339272 36.66341491 330.5 36.625 C331.54671875 36.59986328 332.5934375 36.57472656 333.671875 36.54882812 C344.1050941 36.44977858 344.1050941 36.44977858 348.375 39.8125 C351.28935107 45.282138 351.80619331 49.6897575 351.75595093 55.8208313 C351.7606309 56.70533175 351.76531087 57.58983221 351.77013266 58.50113571 C351.7820599 61.45289718 351.77263433 64.40419244 351.76318359 67.35595703 C351.76725024 69.47693146 351.77259264 71.59790377 351.77911377 73.71887207 C351.79278036 79.47072887 351.78749179 85.2224241 351.77797651 90.9742837 C351.77037856 96.99375499 351.77742572 103.01321249 351.78213501 109.03268433 C351.78759131 119.13883955 351.78040332 129.24492898 351.76611328 139.35107422 C351.74977822 151.03854041 351.75508205 162.72584967 351.7715925 174.41331208 C351.78520036 184.44743225 351.7871307 194.48150514 351.77927649 204.51563156 C351.77459728 210.50894295 351.77398218 216.50218054 351.78388596 222.49548721 C351.79254342 228.12783418 351.7865559 233.75997843 351.76920319 239.39230347 C351.76523222 241.46072935 351.76638278 243.52917226 351.77299118 245.5975914 C351.78117231 248.41800424 351.77092659 251.23776486 351.75595093 254.05813599 C351.76264309 254.87924177 351.76933526 255.70034756 351.77623022 256.54633534 C351.72877271 261.14484453 351.25943045 264.17037385 348.375 267.8125 C343.18122863 271.43938472 337.81444578 271.40386828 331.6953125 271.65625 C330.6509201 271.71147827 329.60652771 271.76670654 328.53048706 271.8236084 C325.18748955 271.99917145 321.84400277 272.15735838 318.5 272.3125 C269.89137155 274.63408455 214.51565533 279.038622 175.375 310.8125 C165.46808126 318.76362482 156.02352792 320.54152178 143.375 319.8125 C135.53951926 318.62775377 129.68577721 315.32844588 123.8125 310.125 C117.74262679 304.90130583 111.35373033 300.76859554 104.375 296.8125 C103.57964844 296.35230469 102.78429687 295.89210938 101.96484375 295.41796875 C73.55536771 280.06808033 35.1843865 275.71525436 3.49609375 273.8125 C0.92121492 273.6459731 -1.65365462 273.47930236 -4.22851562 273.3125 C-8.23103485 273.05970412 -12.23369438 272.80953613 -16.23657227 272.5625 C-20.13874807 272.32106509 -24.04003192 272.06655837 -27.94140625 271.8125 C-29.14036026 271.74160156 -30.33931427 271.67070312 -31.57460022 271.59765625 C-32.69023849 271.52417969 -33.80587677 271.45070313 -34.95532227 271.375 C-35.93235611 271.31441406 -36.90938995 271.25382812 -37.91603088 271.19140625 C-43.01097428 270.47877137 -46.34472856 268.79568675 -49.625 264.8125 C-50.93428681 260.68664823 -50.76999224 256.5407954 -50.76544189 252.25431824 C-50.76841302 251.38195929 -50.77138414 250.50960035 -50.7744453 249.61080629 C-50.78312992 246.68217824 -50.78464034 243.75359108 -50.78613281 240.82495117 C-50.79076112 238.72737033 -50.7957858 236.62979032 -50.80117798 234.5322113 C-50.81430202 228.829681 -50.82074685 223.12716248 -50.82518864 217.42461944 C-50.82811912 213.86261508 -50.83222387 210.30061395 -50.83669281 206.73861122 C-50.85036724 195.59590075 -50.86003438 184.45319763 -50.8638947 173.31047934 C-50.86837662 160.44397779 -50.88593102 147.57758242 -50.9148953 134.71111315 C-50.93650271 124.76790339 -50.94659847 114.82472352 -50.94793582 104.88149053 C-50.94898444 98.94171113 -50.95490461 93.00203154 -50.97275543 87.06227684 C-50.98921996 81.4751278 -50.99139941 75.88815379 -50.98261642 70.30098915 C-50.98184521 68.25113583 -50.98619987 66.20127316 -50.99607468 64.15144348 C-51.00877227 61.35129781 -51.00292917 58.55177408 -50.99249268 55.75163269 C-51.00054908 54.94208812 -51.00860548 54.13254356 -51.01690602 53.29846734 C-50.97145916 48.07838737 -50.06210218 44.45273765 -47.625 39.8125 C-43.37689354 35.91311869 -38.57148028 36.42904872 -33.125 36.5625 C-32.28324219 36.56765625 -31.44148438 36.5728125 -30.57421875 36.578125 C-26.47597032 36.62975648 -22.62043648 36.79726614 -18.625 37.8125 C-18.78613281 36.98363281 -18.94726562 36.15476563 -19.11328125 35.30078125 C-20.58994019 25.23470163 -21.21980863 12.84664305 -15.875 3.875 C-11.21193509 -0.39947617 -6.02768447 -0.45753557 0 0 Z M6.375 26.8125 C6.375 93.4725 6.375 160.1325 6.375 228.8125 C9.66298075 229.63449519 12.33591758 230.01578456 15.6796875 230.20703125 C42.21077437 231.88117448 68.35670087 236.54939557 93.375 245.8125 C94.1690625 246.09351563 94.963125 246.37453125 95.78125 246.6640625 C103.06183731 249.38246361 109.79218349 253.10982643 116.59130859 256.83837891 C118.18631163 257.70945229 119.78988632 258.56478755 121.39453125 259.41796875 C130.67405586 264.36970363 139.43958556 269.71898169 147.40234375 276.625 C149.26957593 278.03266307 149.26957593 278.03266307 151.27661133 277.53710938 C153.51704938 276.76344793 155.02660275 275.82174584 156.921875 274.40625 C157.9286731 273.66834229 157.9286731 273.66834229 158.95581055 272.91552734 C159.67164307 272.38652832 160.38747559 271.8575293 161.125 271.3125 C169.24008707 265.47531691 177.47324957 260.3561429 186.375 255.8125 C187.14811523 255.41321289 187.92123047 255.01392578 188.71777344 254.60253906 C221.68171648 237.85251485 257.92034582 232.45796542 294.375 228.8125 C294.375 162.1525 294.375 95.4925 294.375 26.8125 C273.71369276 28.33752912 273.71369276 28.33752912 253.375 31.375 C252.71309662 31.50088501 252.05119324 31.62677002 251.36923218 31.75646973 C226.09854619 36.62960683 200.18922502 46.44594869 179.375 61.8125 C177.82051606 62.94559182 176.26580862 64.07837705 174.7109375 65.2109375 C171.42896301 67.61102733 168.15489955 70.02120411 164.890625 72.4453125 C164.13716797 73.00379883 163.38371094 73.56228516 162.60742188 74.13769531 C161.11365539 75.2583469 159.63052979 76.39331795 158.15820312 77.54199219 C157.46146484 78.08243164 156.76472656 78.62287109 156.046875 79.1796875 C155.43424805 79.6629248 154.82162109 80.14616211 154.19042969 80.64404297 C152.18472951 81.93496296 150.75061134 82.56574848 148.375 82.8125 C145.9728587 81.16732318 143.8757724 79.5223427 141.6875 77.625 C136.11681948 72.97792697 130.44603974 68.59501769 124.5 64.4375 C123.82364502 63.9628833 123.14729004 63.4882666 122.45043945 62.99926758 C120.43262587 61.59271908 118.40487846 60.20156708 116.375 58.8125 C115.65876465 58.31314941 114.9425293 57.81379883 114.20458984 57.29931641 C83.9525399 36.54769184 42.81746589 26.8125 6.375 26.8125 Z " fill="#318BFC" transform="translate(99.625,90.1875)"/>
<path d="M0 0 C2.45469475 2.45469475 3.41874967 3.80499853 4.1875 7.1875 C3.91128691 15.88821228 0.09443278 20.56481902 -6.0625 26.625 C-6.54702637 27.10380615 -7.03155273 27.5826123 -7.53076172 28.07592773 C-10.2494151 30.74020805 -13.03413941 33.28972255 -15.9375 35.75 C-18.81163871 38.20114055 -21.31299343 40.79962366 -23.80078125 43.640625 C-28.78351432 49.22456442 -34.00523116 54.53214635 -39.3059082 59.8112793 C-40.88024155 61.3802236 -42.44911589 62.95448558 -44.01757812 64.52929688 C-48.92309911 69.43737578 -53.88518464 74.21142301 -59.15991211 78.72631836 C-61.48577749 80.78279706 -63.51626123 83.0429934 -65.5625 85.375 C-70.97522152 91.41682503 -76.65800819 97.18448526 -82.375 102.9375 C-83.26864258 103.84395264 -84.16228516 104.75040527 -85.08300781 105.68432617 C-85.9231543 106.52584229 -86.76330078 107.3673584 -87.62890625 108.234375 C-88.38631104 108.99588867 -89.14371582 109.75740234 -89.92407227 110.54199219 C-91.8125 112.1875 -91.8125 112.1875 -93.8125 112.1875 C-94.3075 113.6725 -94.3075 113.6725 -94.8125 115.1875 C-96.73828125 116.90625 -96.73828125 116.90625 -99.125 118.6875 C-99.90488281 119.2753125 -100.68476563 119.863125 -101.48828125 120.46875 C-102.25527344 121.0359375 -103.02226562 121.603125 -103.8125 122.1875 C-104.49441406 122.74179687 -105.17632812 123.29609375 -105.87890625 123.8671875 C-108.35541258 125.55821607 -110.53426007 125.83976762 -113.5078125 125.75 C-118.24936247 124.59274035 -122.23876197 121.42436928 -125.8125 118.1875 C-125.8125 117.5275 -125.8125 116.8675 -125.8125 116.1875 C-126.40417969 115.91164063 -126.99585938 115.63578125 -127.60546875 115.3515625 C-132.42683477 112.80861193 -136.25898965 108.94412347 -139.734375 104.79296875 C-144.55927224 99.22139931 -149.79116775 94.05931664 -155.00952148 88.86010742 C-156.746436 87.128553 -158.47793889 85.39171641 -160.20898438 83.65429688 C-165.40454805 78.45622017 -170.5882772 73.31560908 -176.22875977 68.59350586 C-179.64910906 65.55700338 -182.34992584 62.52493228 -183.25390625 57.95703125 C-183.4634376 53.92186295 -182.9594495 51.4927028 -181.1875 47.8125 C-178.0310092 44.32374701 -175.4915774 42.44099341 -170.70703125 41.98828125 C-163.81946118 42.2135202 -160.45355715 45.44223949 -155.8125 50.1875 C-154.75862108 51.21051218 -153.70246391 52.2311805 -152.64453125 53.25 C-151.53255835 54.33200322 -150.42188156 55.41534003 -149.3125 56.5 C-148.77133545 57.02762939 -148.2301709 57.55525879 -147.67260742 58.09887695 C-146.34641785 59.42335835 -145.07434229 60.80157656 -143.8125 62.1875 C-143.8125 62.8475 -143.8125 63.5075 -143.8125 64.1875 C-142.98492187 64.52201172 -142.98492187 64.52201172 -142.140625 64.86328125 C-139.0819324 66.60304097 -137.0051188 68.84514482 -134.5625 71.375 C-130.76158855 75.26705737 -126.87675522 78.96216876 -122.73046875 82.484375 C-119.8240149 85.06525866 -117.15637087 87.87032879 -114.4765625 90.68359375 C-112.93902316 92.41100093 -112.93902316 92.41100093 -110.8125 92.1875 C-108.30679666 89.90958787 -106.07519539 87.48549833 -103.8359375 84.9453125 C-103.10632813 84.11773437 -102.37671875 83.29015625 -101.625 82.4375 C-100.61373047 81.26960938 -100.61373047 81.26960938 -99.58203125 80.078125 C-97.31685266 77.61215495 -94.86075875 75.41538957 -92.35546875 73.1953125 C-86.37213088 67.86596094 -80.71294261 62.23906295 -75.05957031 56.56494141 C-73.29086511 54.7907986 -71.51677347 53.02216485 -69.7421875 51.25390625 C-68.60905361 50.12011277 -67.47622931 48.98600979 -66.34375 47.8515625 C-65.55321228 47.06406113 -65.55321228 47.06406113 -64.7467041 46.26065063 C-62.49118711 43.99056781 -60.59495464 41.86118196 -58.8125 39.1875 C-58.1525 39.1875 -57.4925 39.1875 -56.8125 39.1875 C-56.4825 38.1975 -56.1525 37.2075 -55.8125 36.1875 C-54.4921875 34.890625 -54.4921875 34.890625 -52.6875 33.4375 C-47.43109576 29.01559789 -42.69499422 24.09347844 -37.91748047 19.16699219 C-37.28729004 18.52536133 -36.65709961 17.88373047 -36.0078125 17.22265625 C-35.44078613 16.6387915 -34.87375977 16.05492676 -34.28955078 15.45336914 C-32.8125 14.1875 -32.8125 14.1875 -30.8125 14.1875 C-30.58820313 13.64222656 -30.36390625 13.09695312 -30.1328125 12.53515625 C-26.72575967 6.47705345 -19.95444136 -0.36769196 -13.5625 -3.125 C-8.00555719 -4.14377285 -4.68780463 -3.02102965 0 0 Z " fill="#318BFA" transform="translate(354.8125,175.8125)"/>
<path d="M0 0 C1.3003418 -0.00483398 1.3003418 -0.00483398 2.62695312 -0.00976562 C9.04517636 0.04517636 9.04517636 0.04517636 11.3125 2.3125 C10.44298706 2.342229 10.44298706 2.342229 9.5559082 2.37255859 C6.91184063 2.46822601 4.2685183 2.57773453 1.625 2.6875 C0.71298828 2.7184375 -0.19902344 2.749375 -1.13867188 2.78125 C-2.02490234 2.81992188 -2.91113281 2.85859375 -3.82421875 2.8984375 C-4.63592529 2.9298584 -5.44763184 2.9612793 -6.28393555 2.99365234 C-9.20203235 3.28044831 -9.20203235 3.28044831 -13.6875 5.3125 C-13.6875 78.9025 -13.6875 152.4925 -13.6875 228.3125 C-11.7075 228.9725 -9.7275 229.6325 -7.6875 230.3125 C-7.0275 230.9725 -6.3675 231.6325 -5.6875 232.3125 C-2.79526497 232.77646693 -2.79526497 232.77646693 0.4375 232.9375 C1.53320312 233.01226562 2.62890625 233.08703125 3.7578125 233.1640625 C4.60085937 233.21304688 5.44390625 233.26203125 6.3125 233.3125 C6.3125 233.6425 6.3125 233.9725 6.3125 234.3125 C4.08360504 234.36678973 1.85432529 234.40542338 -0.375 234.4375 C-1.61636719 234.46070313 -2.85773437 234.48390625 -4.13671875 234.5078125 C-8.68233012 234.25777887 -11.45318627 233.34109478 -14.9375 230.4375 C-18.46794477 226.15053135 -17.83359272 221.07746031 -17.82794189 215.75431824 C-17.83091302 214.88195929 -17.83388414 214.00960035 -17.8369453 213.11080629 C-17.84562992 210.18217824 -17.84714034 207.25359108 -17.84863281 204.32495117 C-17.85326112 202.22737033 -17.8582858 200.12979032 -17.86367798 198.0322113 C-17.87680202 192.329681 -17.88324685 186.62716248 -17.88768864 180.92461944 C-17.89061912 177.36261508 -17.89472387 173.80061395 -17.89919281 170.23861122 C-17.91286724 159.09590075 -17.92253438 147.95319763 -17.9263947 136.81047934 C-17.93087662 123.94397779 -17.94843102 111.07758242 -17.9773953 98.21111315 C-17.99900271 88.26790339 -18.00909847 78.32472352 -18.01043582 68.38149053 C-18.01148444 62.44171113 -18.01740461 56.50203154 -18.03525543 50.56227684 C-18.05171996 44.9751278 -18.05389941 39.38815379 -18.04511642 33.80098915 C-18.04434521 31.75113583 -18.04869987 29.70127316 -18.05857468 27.65144348 C-18.07127227 24.85129781 -18.06542917 22.05177408 -18.05499268 19.25163269 C-18.06304908 18.44208812 -18.07110548 17.63254356 -18.07940602 16.79846734 C-18.03395872 11.57833754 -17.12386022 7.95306888 -14.6875 3.3125 C-10.42327864 -0.61570391 -5.4791938 -0.1032252 0 0 Z " fill="#6D9DE5" transform="translate(66.6875,126.6875)"/>
<path d="M0 0 C0.66 0 1.32 0 2 0 C4.79852579 5.5591152 5.42658716 9.86485006 5.36076355 16.04197693 C5.36332682 16.93000521 5.3658901 17.8180335 5.36853105 18.73297173 C5.37345637 21.69643585 5.35699661 24.65938587 5.34057617 27.62280273 C5.33972963 29.75188688 5.34020557 31.8809719 5.34190369 34.01005554 C5.342764 39.78226111 5.32513217 45.55427945 5.30418181 51.32644153 C5.28542118 57.36158469 5.28366505 63.3967322 5.28010559 69.43190002 C5.27078335 80.85689933 5.24616705 92.28181245 5.21605712 103.70677382 C5.18251878 116.71514086 5.16602851 129.72351202 5.15097082 142.73191154 C5.11961772 169.48798879 5.06685364 196.24398957 5 223 C4.01 222.67 3.02 222.34 2 222 C1.99576806 220.88624906 1.99153612 219.77249811 1.98717594 218.62499714 C1.88404844 191.54304066 1.77530848 164.46111116 1.66066074 137.37920094 C1.60534867 124.28267626 1.55186994 111.18614885 1.50268555 98.08959961 C1.45981906 86.67658077 1.41353479 75.26358183 1.36312145 63.85059375 C1.33654042 57.80579072 1.31168778 51.76099159 1.29092598 45.71616554 C1.27133856 40.02897038 1.24718838 34.34181301 1.21950912 28.65465164 C1.21014987 26.565272 1.20247055 24.47588407 1.19658089 22.38649178 C1.18830064 19.53743027 1.17401846 16.68846003 1.15821838 13.83943176 C1.15724028 13.00966019 1.15626217 12.17988862 1.15525442 11.32497245 C1.12732637 7.41795341 0.96019233 3.81547717 0 0 Z " fill="#8CBDF8" transform="translate(446,130)"/>
<path d="M0 0 C22.72052674 0.02693746 22.72052674 0.02693746 32.57763672 5.19018555 C32.57763672 5.52018555 32.57763672 5.85018555 32.57763672 6.19018555 C24.49205523 5.50834249 16.44382689 4.6137554 8.39013672 3.62768555 C6.67600586 3.41982422 6.67600586 3.41982422 4.92724609 3.20776367 C2.14386199 2.87003087 -0.63933238 2.53081443 -3.42236328 2.19018555 C-3.35162598 2.75439209 -3.28088867 3.31859863 -3.20800781 3.89990234 C-2.15315264 13.58918277 -2.27159669 23.2701876 -2.29736328 33.00268555 C-2.29824951 33.96442688 -2.29913574 34.92616821 -2.30004883 35.91705322 C-2.33014082 64.34414881 -2.89454135 92.76884153 -3.42236328 121.19018555 C-4.41236328 121.68518555 -4.41236328 121.68518555 -5.42236328 122.19018555 C-5.43267075 121.15496262 -5.44297821 120.11973969 -5.45359802 119.05314636 C-5.55209495 109.2139158 -5.65488809 99.37473786 -5.76170254 89.53559399 C-5.81646078 84.47931462 -5.86979567 79.42302923 -5.91967773 74.36669922 C-5.96802828 69.47125938 -6.02037861 64.57587607 -6.07530403 59.68050575 C-6.09541301 57.82898715 -6.11417023 55.97745327 -6.1314373 54.12590599 C-6.15619681 51.49777764 -6.18511982 48.86974998 -6.21704102 46.24169922 C-6.22691764 45.40554172 -6.23679426 44.56938421 -6.24697018 43.7078886 C-6.31400412 39.43771309 -6.46268739 35.18746843 -6.73538208 30.92520142 C-6.81656705 29.64294788 -6.81656705 29.64294788 -6.89939213 28.33479023 C-7.00743899 26.72525965 -7.12632158 25.11640134 -7.25855923 23.50867748 C-7.59946657 18.54605905 -6.89661094 14.92866295 -5.42236328 10.19018555 C-5.75236328 9.53018555 -6.08236328 8.87018555 -6.42236328 8.19018555 C-6.54736328 4.62768555 -6.54736328 4.62768555 -6.42236328 1.19018555 C-4.66231855 -0.56985919 -2.34574956 0.02483863 0 0 Z " fill="#327FD8" transform="translate(109.42236328125,114.809814453125)"/>
<path d="M0 0 C0.99 0.33 1.98 0.66 3 1 C4.39439664 1.06665376 5.79169875 1.08538199 7.1875 1.0625 C8.445625 1.041875 9.70375 1.02125 11 1 C7.69590051 3.73257958 4.35164047 6.090684 0.6875 8.3125 C-2.88806564 10.54304028 -6.04643586 12.81252827 -9.125 15.6875 C-17.27211675 23.10154285 -26.60219596 24.27336635 -37.2890625 24.15625 C-46.37473184 23.6325803 -53.37911015 19.86781381 -60.1875 14 C-60.70763672 13.56171875 -61.22777344 13.1234375 -61.76367188 12.671875 C-64.27674162 10.54074051 -66.72074773 8.38107454 -69 6 C-66.01471913 7.02352487 -63.99168981 8.0070317 -61.5625 10.0625 C-58.60981492 12.29501799 -56.63330375 12.60507568 -53 13 C-52.01 13.33 -51.02 13.66 -50 14 C-48.68 14 -47.36 14 -46 14 C-46 14.66 -46 15.32 -46 16 C-47.65 16.33 -49.3 16.66 -51 17 C-45.38500096 19.86723355 -40.45242094 20.30197739 -34.25 20.3125 C-33.50500244 20.31765625 -32.76000488 20.3228125 -31.99243164 20.328125 C-26.63369837 20.33036021 -26.63369837 20.33036021 -22 18 C-21.67 16.68 -21.34 15.36 -21 14 C-18.03 14 -15.06 14 -12 14 C-11.34 12.68 -10.68 11.36 -10 10 C-7.08510357 8.50518132 -5.29223784 8 -2 8 C-2.04125 7.05125 -2.0825 6.1025 -2.125 5.125 C-2 2 -2 2 0 0 Z " fill="#4995EC" transform="translate(283,386)"/>
<path d="M0 0 C0 66.66 0 133.32 0 202 C-0.33 202 -0.66 202 -1 202 C-1 135.67 -1 69.34 -1 1 C-18.62748762 2.82492346 -18.62748762 2.82492346 -36 6 C-38.33300933 6.03888349 -40.66709801 6.0448635 -43 6 C-42.67 5.34 -42.34 4.68 -42 4 C-40.02 4 -38.04 4 -36 4 C-36 3.34 -36 2.68 -36 2 C-23.79735662 0.09120662 -12.5359218 0 0 0 Z " fill="#97C4F7" transform="translate(395,116)"/>
<path d="M0 0 C0.99 0.495 0.99 0.495 2 1 C-0.9771532 2.69296142 -3.2529321 3.28662441 -6.66308594 3.45483398 C-8.04799225 3.53017616 -8.04799225 3.53017616 -9.46087646 3.60704041 C-10.45863098 3.65292801 -11.4563855 3.69881561 -12.484375 3.74609375 C-14.05520844 3.83105858 -14.05520844 3.83105858 -15.65777588 3.91773987 C-20.1201728 4.15872881 -24.58352149 4.37936611 -29.046875 4.60180664 C-49.05010721 5.61722191 -68.85415046 7.45081105 -88.5625 11.125 C-90.41780149 11.46186001 -92.27326641 11.79782137 -94.12890625 12.1328125 C-94.96180176 12.28395508 -95.79469727 12.43509766 -96.65283203 12.59082031 C-99.76060975 13.13259642 -102.87364933 13.57972241 -106 14 C-106 13.34 -106 12.68 -106 12 C-104.4188708 11.49307308 -102.83498617 10.99473557 -101.25 10.5 C-100.36828125 10.2215625 -99.4865625 9.943125 -98.578125 9.65625 C-96 9 -96 9 -92 9 C-92 7.68 -92 6.36 -92 5 C-92 4.67 -92 4.34 -92 4 C-87.89250502 3.92665188 -84.05202576 3.94162264 -80 4.625 C-77.03503482 5.03818825 -75.69037247 4.91238418 -72.6809082 4.06079102 C-66.28529392 2.35899283 -59.68149169 2.54736409 -53.10546875 2.40234375 C-51.66674888 2.3636616 -50.22805348 2.32405976 -48.78938293 2.28358459 C-45.02442821 2.17951089 -41.25930058 2.08521024 -37.49401855 1.99383545 C-31.45073186 1.84623149 -25.40777551 1.68682837 -19.36495399 1.52136421 C-17.25837477 1.46558269 -15.15171355 1.41595269 -13.04496765 1.3669281 C-11.13201653 1.31666222 -11.13201653 1.31666222 -9.18041992 1.26538086 C-8.05649338 1.2381041 -6.93256683 1.21082733 -5.77458191 1.182724 C-2.91374316 1.11191572 -2.91374316 1.11191572 0 0 Z " fill="#3587EA" transform="translate(444,358)"/>
<path d="M0 0 C0.33 0 0.66 0 1 0 C1.07000601 28.24145572 1.12294689 56.48289848 1.15543652 84.72442341 C1.17092134 97.83673817 1.1920417 110.94899909 1.22631836 124.0612793 C1.25617128 135.4867143 1.27556324 146.91211033 1.28226548 158.33758324 C1.28618471 164.39020275 1.29542892 170.44271073 1.31719017 176.49529457 C1.33749045 182.18742601 1.34384691 187.87939953 1.33932304 193.57156372 C1.34015115 195.66502426 1.34615505 197.75848985 1.35761642 199.85191917 C1.37245946 202.70183513 1.36898364 205.55114846 1.36076355 208.40107727 C1.36950207 209.23667453 1.3782406 210.07227178 1.38724393 210.93319017 C1.34274028 216.6095955 1.34274028 216.6095955 -0.52307147 218.73488206 C-1.25415109 219.36111544 -1.25415109 219.36111544 -2 220 C-2 218.02 -2 216.04 -2 214 C-1.34 214 -0.68 214 0 214 C0 143.38 0 72.76 0 0 Z " fill="#4A84D1" transform="translate(449,138)"/>
<path d="M0 0 C1.03801758 -0.02803711 2.07603516 -0.05607422 3.14550781 -0.08496094 C6.46624845 0.2805329 8.33416683 1.33560412 11.046875 3.234375 C7.54432909 4.4018903 4.49215755 4.25556214 0.859375 4.171875 C-13.45550638 4.01112218 -28.01095137 5.09711286 -42.07421875 7.80078125 C-46.56179707 8.47665804 -51.0801481 8.65245544 -55.61328125 8.80493164 C-59.23652612 8.96263984 -60.85546303 9.16926702 -63.953125 11.234375 C-67.08984375 11.6484375 -67.08984375 11.6484375 -70.640625 11.859375 C-72.40986328 11.97152344 -72.40986328 11.97152344 -74.21484375 12.0859375 C-75.57029297 12.15941406 -75.57029297 12.15941406 -76.953125 12.234375 C-55.49880985 0.49424129 -23.7888142 0.57499663 0 0 Z " fill="#6BA3E5" transform="translate(403.953125,90.765625)"/>
<path d="M0 0 C8.4371599 -0.12668408 16.80761886 0.29861425 25.22583008 0.79956055 C27.58841771 0.93902999 29.95137635 1.07028253 32.31445312 1.20117188 C33.815133 1.28856887 35.31578526 1.37644154 36.81640625 1.46484375 C37.52358292 1.50343002 38.23075958 1.5420163 38.95936584 1.58177185 C43.88542546 1.88542546 43.88542546 1.88542546 45 3 C46.810285 3.09879565 48.62452727 3.12971514 50.4375 3.125 C51.42621094 3.12757813 52.41492188 3.13015625 53.43359375 3.1328125 C55.98909076 3.17228415 55.98909076 3.17228415 58 2 C58 2.66 58 3.32 58 4 C59.06927734 4.18175781 59.06927734 4.18175781 60.16015625 4.3671875 C65.54976172 5.31018711 70.76269711 6.38852219 76 8 C77.258125 8.33 78.51625 8.66 79.8125 9 C83 10 83 10 85 12 C77.63677945 11.37336454 70.40849127 10.29442582 63.125 9.0625 C41.85056361 5.5879143 20.49564917 4.29106738 -1 3 C-0.67 2.01 -0.34 1.02 0 0 Z " fill="#7AAFE6" transform="translate(74,359)"/>
<path d="M0 0 C0.33 0 0.66 0 1 0 C1.20056685 16.24599484 1.38388315 32.49207803 1.54658794 48.73849201 C1.6225358 56.28175247 1.70415674 63.82487232 1.79907227 71.36791992 C1.88177316 77.94139511 1.95389189 84.514886 2.01323253 91.08861512 C2.04503327 94.57033234 2.08218017 98.05180951 2.13199425 101.53331947 C2.18736541 105.4170576 2.21911337 109.30079057 2.2487793 113.18481445 C2.27898415 114.92189919 2.27898415 114.92189919 2.30979919 116.69407654 C2.31408936 117.74996979 2.31837952 118.80586304 2.32279968 119.89375305 C2.33293941 120.81278066 2.34307913 121.73180826 2.35352612 122.67868519 C1.9296729 125.46178011 1.22399216 126.32791454 -1 128 C-3.12890625 128.50830078 -3.12890625 128.50830078 -5.5625 128.6953125 C-6.44164062 128.77136719 -7.32078125 128.84742188 -8.2265625 128.92578125 C-9.14179688 128.99152344 -10.05703125 129.05726563 -11 129.125 C-12.81273581 129.27052949 -14.62525038 129.41884882 -16.4375 129.5703125 C-17.24058594 129.62977051 -18.04367187 129.68922852 -18.87109375 129.75048828 C-21.18454969 129.94837965 -21.18454969 129.94837965 -24 131 C-25.47965926 131.14573058 -26.96403843 131.24663268 -28.44921875 131.31640625 C-29.72055664 131.37924805 -29.72055664 131.37924805 -31.01757812 131.44335938 C-31.89865234 131.48267578 -32.77972656 131.52199219 -33.6875 131.5625 C-34.58017578 131.60568359 -35.47285156 131.64886719 -36.39257812 131.69335938 C-38.59490108 131.79935353 -40.79733473 131.90142051 -43 132 C-43 131.67 -43 131.34 -43 131 C-31.81262632 128.9049862 -20.70980293 127.48698661 -9.35522461 126.64697266 C-8.41171143 126.57526855 -7.46819824 126.50356445 -6.49609375 126.4296875 C-5.65232178 126.37022949 -4.8085498 126.31077148 -3.93920898 126.24951172 C-1.99664683 126.20034286 -1.99664683 126.20034286 -1 125 C-0.89180852 123.38084076 -0.8531521 121.75699212 -0.84178162 120.13426208 C-0.8319928 119.08111816 -0.82220398 118.02797424 -0.81211853 116.94291687 C-0.80636307 115.77766983 -0.8006076 114.61242279 -0.79467773 113.41186523 C-0.78477814 112.19252289 -0.77487854 110.97318054 -0.76467896 109.71688843 C-0.73842821 106.36375394 -0.7165923 103.01064407 -0.69667697 99.65746951 C-0.67485523 96.15671611 -0.64744795 92.65600667 -0.62062073 89.1552887 C-0.57064213 82.52193534 -0.52572255 75.88855765 -0.48259836 69.25515658 C-0.43327005 61.70506671 -0.37833563 54.15502093 -0.32291877 46.60497367 C-0.20901944 31.07002317 -0.10219781 15.53503216 0 0 Z " fill="#3488EA" transform="translate(396,192)"/>
<path d="M0 0 C1.1600354 0.07105957 1.1600354 0.07105957 2.34350586 0.14355469 C23.03571627 1.52663298 43.253411 4.24927408 63.5 8.75 C63.5 9.08 63.5 9.41 63.5 9.75 C62.64277344 9.6778125 61.78554687 9.605625 60.90234375 9.53125 C55.08538524 9.05907298 49.33666909 8.61426351 43.5 8.75 C43.5 8.09 43.5 7.43 43.5 6.75 C42.50097656 6.76160156 41.50195312 6.77320312 40.47265625 6.78515625 C39.18230469 6.79417969 37.89195312 6.80320312 36.5625 6.8125 C35.27472656 6.82410156 33.98695313 6.83570312 32.66015625 6.84765625 C29.5 6.75 29.5 6.75 28.5 5.75 C27.11851888 5.6172658 25.73093271 5.54671519 24.34375 5.50390625 C23.48523438 5.47103516 22.62671875 5.43816406 21.7421875 5.40429688 C19.94540587 5.3441482 18.14852939 5.28675494 16.3515625 5.23242188 C11.20641935 5.03012767 6.44259588 4.46119788 1.44750977 3.19213867 C-4.52653002 1.83586613 -9.76130358 3.13913785 -15.5 4.75 C-10.6818163 -0.58441767 -6.91502389 -0.43184918 0 0 Z " fill="#78ACE3" transform="translate(99.5,90.25)"/>
<path d="M0 0 C0.66 0 1.32 0 2 0 C2.02322964 9.11908037 2.04096907 18.23815046 2.05181217 27.35725403 C2.05701783 31.59218394 2.06407316 35.82709351 2.07543945 40.06201172 C2.08635098 44.15336302 2.09229428 48.24469483 2.09487724 52.33605957 C2.09671665 53.89245917 2.10030842 55.44885778 2.10573006 57.00524902 C2.11305037 59.19492856 2.11398635 61.38452883 2.11352539 63.57421875 C2.115746 64.81776123 2.11796661 66.06130371 2.12025452 67.3425293 C1.99023169 71.29709738 1.54599263 75.08328082 1 79 C0.34 79 -0.32 79 -1 79 C-0.67 52.93 -0.34 26.86 0 0 Z " fill="#3180D8" transform="translate(104,240)"/>
<path d="M0 0 C2.2477975 2.05233685 3.0022242 3.00667261 4 6 C4.08291953 7.9920303 4.10738177 9.98673713 4.09765625 11.98046875 C4.09282227 13.72553711 4.09282227 13.72553711 4.08789062 15.50585938 C4.07951172 16.72080078 4.07113281 17.93574219 4.0625 19.1875 C4.05798828 20.41404297 4.05347656 21.64058594 4.04882812 22.90429688 C4.03703065 25.93624668 4.02056921 28.96809906 4 32 C4.67579102 31.98428955 5.35158203 31.9685791 6.04785156 31.95239258 C9.11514897 31.88996133 12.18231259 31.85098353 15.25 31.8125 C16.31347656 31.78736328 17.37695312 31.76222656 18.47265625 31.73632812 C19.49746094 31.72666016 20.52226562 31.71699219 21.578125 31.70703125 C22.52075195 31.6913208 23.46337891 31.67561035 24.43457031 31.65942383 C27 32 27 32 31 35 C21.43 35 11.86 35 2 35 C1.5625 20.875 1.5625 20.875 1.43188477 16.45263672 C1.39377686 15.29006348 1.35566895 14.12749023 1.31640625 12.9296875 C1.27974854 11.74616699 1.24309082 10.56264648 1.20532227 9.34326172 C1.01009782 6.16442281 0.58523498 3.12819551 0 0 Z " fill="#4A84CD" transform="translate(415,95)"/>
<path d="M0 0 C2.96796049 2.06231417 5.5027436 4.39387139 8 7 C7.01 7 6.02 7 5 7 C4.46375 6.360625 3.9275 5.72125 3.375 5.0625 C0.3287043 2.41703268 -1.96567576 2.25368806 -5.87890625 1.78515625 C-8.59247532 2.06001131 -9.21546813 3.01773606 -11 5 C-11.99 5.33 -12.98 5.66 -14 6 C-15.4642571 8.63566279 -16.02988986 10.41714777 -15.875 13.4375 C-14.30464702 18.03639086 -11.70105354 21.3148795 -8.25 24.6875 C-6 27 -6 27 -6 30 C-9.6147378 28.50536684 -11.64435488 26.4391696 -14.1875 23.5 C-14.88230469 22.7059375 -15.57710937 21.911875 -16.29296875 21.09375 C-19.2333372 17.48725689 -19.34303157 14.86007042 -19.27734375 10.3203125 C-18.84203773 6.67845649 -17.43146136 4.68740466 -15 2 C-10.17268366 -1.48015829 -5.55538744 -1.89536748 0 0 Z " fill="#80B3E9" transform="translate(191,219)"/>
<path d="M0 0 C0 0.33 0 0.66 0 1 C-5.36041142 2.93266534 -10.34295953 4.19185136 -16 5 C-16.66 5.66 -17.32 6.32 -18 7 C-18.969375 7.144375 -19.93875 7.28875 -20.9375 7.4375 C-23.99834873 7.67308011 -23.99834873 7.67308011 -25.375 9.5625 C-27.73525084 11.65041421 -29.91774919 11.15466025 -32.93359375 11.0546875 C-35.78672954 10.97917918 -38.25315178 11.21518622 -41 12 C-42.43637698 13.95163118 -42.43637698 13.95163118 -43 16 C-44.0725 15.979375 -45.145 15.95875 -46.25 15.9375 C-49.14790424 15.9857984 -51.28612141 16.13155885 -54 17 C-54 17.66 -54 18.32 -54 19 C-55.65 18.67 -57.3 18.34 -59 18 C-45.80621421 9.20414281 -29.08328688 6.05009707 -14 2 C-13.17274414 1.77779785 -12.34548828 1.5555957 -11.49316406 1.32666016 C-7.5509227 0.30080819 -4.0828414 -0.20414207 0 0 Z " fill="#4B8FDF" transform="translate(353,324)"/>
<path d="M0 0 C0.99 0.495 0.99 0.495 2 1 C-1.00168916 2.70938265 -3.32027762 3.29557098 -6.75830078 3.48657227 C-7.70093781 3.54325577 -8.64357483 3.59993927 -9.61477661 3.65834045 C-11.13964188 3.73658302 -11.13964188 3.73658302 -12.6953125 3.81640625 C-13.75676483 3.87779282 -14.81821716 3.93917938 -15.91183472 4.00242615 C-19.3158159 4.19735195 -22.72032705 4.3800982 -26.125 4.5625 C-28.36332661 4.68865081 -30.60160862 4.81559577 -32.83984375 4.94335938 C-38.22505757 5.24887498 -43.61073574 5.54485073 -48.9967041 5.83673096 C-53.53709994 6.08356181 -58.07714004 6.33670014 -62.6171875 6.58984375 C-64.06884576 6.67052568 -65.52050569 6.75117753 -66.97216797 6.83178711 C-68.47094482 6.91505249 -68.47094482 6.91505249 -70 7 C-64.1396368 4.0698184 -59.62300838 3.5017346 -53.0625 3 C-51.3762854 2.86863647 -51.3762854 2.86863647 -49.65600586 2.73461914 C-37.91298813 1.88594547 -26.16183432 1.5792878 -14.39282227 1.34179688 C-13.65781494 1.3255275 -12.92280762 1.30925812 -12.16552734 1.29249573 C-10.1573931 1.24875621 -8.14913159 1.21097687 -6.14086914 1.17358398 C-2.97112963 1.13670748 -2.97112963 1.13670748 0 0 Z " fill="#7FB1E7" transform="translate(444,358)"/>
<path d="M0 0 C22.72052674 0.02693746 22.72052674 0.02693746 32.57763672 5.19018555 C32.57763672 5.52018555 32.57763672 5.85018555 32.57763672 6.19018555 C24.49205523 5.50834249 16.44382689 4.6137554 8.39013672 3.62768555 C6.67600586 3.41982422 6.67600586 3.41982422 4.92724609 3.20776367 C2.14386539 2.87003128 -0.63927473 2.53031705 -3.42236328 2.19018555 C-3.09236328 5.82018555 -2.76236328 9.45018555 -2.42236328 13.19018555 C-3.41236328 13.68518555 -3.41236328 13.68518555 -4.42236328 14.19018555 C-6.17653741 9.69511435 -6.70598436 6.01174385 -6.42236328 1.19018555 C-4.66231855 -0.56985919 -2.34574956 0.02483863 0 0 Z " fill="#6AA3E2" transform="translate(109.42236328125,114.809814453125)"/>
<path d="M0 0 C2.98528087 1.02352487 5.00831019 2.0070317 7.4375 4.0625 C10.39018508 6.29501799 12.36669625 6.60507568 16 7 C16.99 7.33 17.98 7.66 19 8 C20.32 8 21.64 8 23 8 C23 8.66 23 9.32 23 10 C21.35 10.33 19.7 10.66 18 11 C27.14024148 16.05180441 36.83474697 15.7912679 47 16 C47 16.33 47 16.66 47 17 C35.62193254 19.02276755 25.28526785 18.66453489 15 13 C12.87147444 11.37214649 10.83683454 9.74467362 8.8125 8 C8.29236328 7.56171875 7.77222656 7.1234375 7.23632812 6.671875 C4.72325838 4.54074051 2.27925227 2.38107454 0 0 Z " fill="#8DBFE9" transform="translate(214,392)"/>
<path d="M0 0 C6.33401613 -0.19932219 12.15543725 0.51906277 18.375 1.6875 C19.32584473 1.86249023 20.27668945 2.03748047 21.25634766 2.21777344 C30.3274422 3.94948664 39.16295824 6.33797754 48 9 C48 9.33 48 9.66 48 10 C42.792819 10.20855635 38.34497053 9.4831047 33.375 8.0625 C27.06009076 6.35470831 21.03663344 5.46064785 14.4765625 5.17578125 C12 5 12 5 10 4 C8.29636178 3.77377919 6.58671299 3.59111527 4.875 3.4375 C3.96492187 3.35371094 3.05484375 3.26992188 2.1171875 3.18359375 C1.41851562 3.12300781 0.71984375 3.06242187 0 3 C0 2.01 0 1.02 0 0 Z " fill="#5395DC" transform="translate(128,321)"/>
<path d="M0 0 C15.30674234 1.66377634 28.72158366 8.68156986 42 16 C42.97710937 16.53753906 43.95421875 17.07507813 44.9609375 17.62890625 C46.97801105 18.74561416 48.99155512 19.86786847 51 21 C51 21.33 51 21.66 51 22 C49.35 22 47.7 22 46 22 C45.79375 21.360625 45.5875 20.72125 45.375 20.0625 C44.92125 19.381875 44.4675 18.70125 44 18 C42.00430399 17.64179815 40.00277585 17.31622777 38 17 C33.57627746 15.19681831 29.27202251 13.13601126 25 11 C25 10.34 25 9.68 25 9 C23.989375 8.896875 22.97875 8.79375 21.9375 8.6875 C17.86023701 7.97559694 14.74390918 6.73824355 11 5 C9.77244415 4.47538139 8.54329044 3.95448447 7.3125 3.4375 C4.82615897 2.35852182 2.40281661 1.24946464 0 0 Z " fill="#74A6E3" transform="translate(176,331)"/>
<path d="M0 0 C6.15481281 -0.22291073 11.06358314 0.22948971 17 2 C20.65894368 2.45239657 24.32231072 2.74728356 28 3 C28.33 3.99 28.66 4.98 29 6 C33.08369541 6.86671164 37.17886115 7.48301792 41.3125 8.0625 C42.56675781 8.23910156 43.82101563 8.41570312 45.11328125 8.59765625 C46.06589844 8.73042969 47.01851562 8.86320313 48 9 C47.67 9.99 47.34 10.98 47 12 C49.475 12.99 49.475 12.99 52 14 C51.67 14.66 51.34 15.32 51 16 C50.34330322 15.72325439 49.68660645 15.44650879 49.01000977 15.16137695 C32.88703457 8.45103518 17.25003573 3.75195123 0 1 C0 0.67 0 0.34 0 0 Z " fill="#72A2DB" transform="translate(142,121)"/>
<path d="M0 0 C9.24126291 -0.14815652 18.40697816 0.42783368 27.625 1 C29.21743127 1.0966289 30.8098791 1.19298522 32.40234375 1.2890625 C36.26842726 1.52290047 40.13426808 1.76042275 44 2 C44.495 2.99 44.495 2.99 45 4 C40.37760802 4.02502961 35.75525692 4.04301321 31.1328125 4.05493164 C29.5657482 4.059909 27.99868842 4.06669329 26.43164062 4.07543945 C17.23144947 4.12544049 8.16124808 3.99146255 -1 3 C-0.67 2.01 -0.34 1.02 0 0 Z " fill="#63A0E7" transform="translate(74,359)"/>
<path d="M0 0 C3.93214301 1.58939426 6.33020346 4.16342502 9.25 7.1875 C13.0516402 11.08030359 16.9351443 14.77809558 21.0859375 18.296875 C23.97247255 20.86530211 26.59990188 23.67575718 29.23828125 26.49609375 C30.99422717 28.32463119 30.99422717 28.32463119 34 28 C34 28.66 34 29.32 34 30 C29.27624369 29.78130758 27.40763862 27.68433786 24.39379883 24.390625 C23.85134521 23.78734375 23.3088916 23.1840625 22.75 22.5625 C17.64928497 17.11709303 14.52342858 14.98667916 7 14 C5.625 11.6875 5.625 11.6875 5 9 C4.01810813 7.32260138 3.01866229 5.65532623 2 4 C1.31903578 2.67391178 0.64669414 1.34313399 0 0 Z " fill="#88B8F4" transform="translate(211,240)"/>
<path d="M0 0 C1.62858786 3.25717573 0.77009319 6.56958488 0 10 C-1.125 12.0625 -1.125 12.0625 -3 13 C-6.6875 12.6875 -6.6875 12.6875 -10 12 C-10.33 12.99 -10.66 13.98 -11 15 C-11.66 15 -12.32 15 -13 15 C-13.2475 15.639375 -13.495 16.27875 -13.75 16.9375 C-15 19 -15 19 -17.125 19.75 C-18.053125 19.87375 -18.053125 19.87375 -19 20 C-17.55610571 16.64180241 -15.75908265 14.58303171 -13.0859375 12.109375 C-12.32539063 11.40039062 -11.56484375 10.69140625 -10.78125 9.9609375 C-9.59015625 8.86652344 -9.59015625 8.86652344 -8.375 7.75 C-7.57320313 7.00492188 -6.77140625 6.25984375 -5.9453125 5.4921875 C-3.96820933 3.65630598 -1.98636057 1.82585299 0 0 Z " fill="#3388F4" transform="translate(270,242)"/>
<path d="M0 0 C0.99 0.33 1.98 0.66 3 1 C4.39439664 1.06665376 5.79169875 1.08538199 7.1875 1.0625 C8.445625 1.041875 9.70375 1.02125 11 1 C7.63968861 3.78199693 4.2253005 6.17197315 0.5 8.4375 C-3.54905836 10.97294275 -6.85245916 13.4183156 -10 17 C-10.66 16.67 -11.32 16.34 -12 16 C-11.34 15.01 -10.68 14.02 -10 13 C-10 12.01 -10 11.02 -10 10 C-7.09399739 8.74335022 -5.20395416 8 -2 8 C-2.04125 7.05125 -2.0825 6.1025 -2.125 5.125 C-2 2 -2 2 0 0 Z " fill="#4E94EB" transform="translate(283,386)"/>
<path d="M0 0 C-0.33 0.66 -0.66 1.32 -1 2 C-3.43676758 2.48657227 -3.43676758 2.48657227 -6.64453125 2.81640625 C-7.79630859 2.94080078 -8.94808594 3.06519531 -10.13476562 3.19335938 C-11.34841797 3.31517578 -12.56207031 3.43699219 -13.8125 3.5625 C-16.19424907 3.81153006 -18.57577132 4.06274164 -20.95703125 4.31640625 C-22.54994995 4.47798218 -22.54994995 4.47798218 -24.17504883 4.64282227 C-26.90517168 4.9304977 -26.90517168 4.9304977 -29.14331055 5.53881836 C-32.07826625 6.26782971 -34.99329916 6.05782117 -38 6 C-37.67 5.34 -37.34 4.68 -37 4 C-35.02 4 -33.04 4 -31 4 C-31 3.34 -31 2.68 -31 2 C-20.57904782 0.46629876 -10.53922138 -0.27256607 0 0 Z " fill="#81B3E2" transform="translate(390,116)"/>
<path d="M0 0 C11.4764591 1.06757759 22.38842289 5.76231618 33 10 C29.99032056 11.00322648 28.5759723 11.03098357 25.5 10.6875 C24.33984375 10.56955078 24.33984375 10.56955078 23.15625 10.44921875 C21 10 21 10 18 8 C16.45061086 7.49913175 14.8857724 7.04486862 13.3125 6.625 C8.51655367 5.2517114 4.3897514 3.35745908 0 1 C0 0.67 0 0.34 0 0 Z " fill="#76A6E4" transform="translate(163,100)"/>
<path d="M0 0 C0.99 0 1.98 0 3 0 C3 0.66 3 1.32 3 2 C2.34 2 1.68 2 1 2 C1 2.66 1 3.32 1 4 C6.29156027 5.81027062 11.63904723 7.41078475 17 9 C16.34 9.66 15.68 10.32 15 11 C10.98340562 10.62309268 7.40600412 9.54714475 3.625 8.1875 C-3.79849145 5.63509047 -11.3717186 3.81994531 -19 2 C-15.28175148 0.92742831 -12.82313096 1.33830426 -9 2 C-6.32627715 2.08687186 -3.67624345 2.04614213 -1 2 C-0.67 1.34 -0.34 0.68 0 0 Z " fill="#65A2E4" transform="translate(179,370)"/>
<path d="M0 0 C0.78375 0.04125 1.5675 0.0825 2.375 0.125 C0.08783254 3.26985525 -2.35417884 5.82066062 -5.3125 8.3125 C-9.56606926 11.92643478 -13.18363428 15.9755036 -16.83984375 20.18359375 C-17.42894531 20.82425781 -18.01804687 21.46492188 -18.625 22.125 C-18.955 22.125 -19.285 22.125 -19.625 22.125 C-19.625 19.815 -19.625 17.505 -19.625 15.125 C-18.305 15.455 -16.985 15.785 -15.625 16.125 C-14.965 14.805 -14.305 13.485 -13.625 12.125 C-12.965 12.125 -12.305 12.125 -11.625 12.125 C-11.625 10.475 -11.625 8.825 -11.625 7.125 C-10.449375 7.00125 -10.449375 7.00125 -9.25 6.875 C-6.49859896 6.40889075 -6.49859896 6.40889075 -5.4375 4.1875 C-5.169375 3.506875 -4.90125 2.82625 -4.625 2.125 C-2.625 0.125 -2.625 0.125 0 0 Z " fill="#458DD8" transform="translate(303.625,243.875)"/>
<path d="M0 0 C6.29852779 3.23479946 11.90356351 7.01687703 17.51953125 11.328125 C19.82190899 12.87996386 21.2470488 13.7922301 24 14 C24.99 13.34 25.98 12.68 27 12 C26.67 13.32 26.34 14.64 26 16 C24.68 16 23.36 16 22 16 C21.67 16.66 21.34 17.32 21 18 C19.2925002 16.71937515 17.62626404 15.38232443 16 14 C16 13.34 16 12.68 16 12 C15.443125 11.87625 14.88625 11.7525 14.3125 11.625 C8.17912102 9.96733001 5.87710145 7.92496671 2 3 C1.34 2.67 0.68 2.34 0 2 C0 1.34 0 0.68 0 0 Z " fill="#6CA5E0" transform="translate(228,353)"/>
<path d="M0 0 C0 4.6063753 -1.22363502 7.13970367 -4.3125 10.5625 C-11.41025641 17 -11.41025641 17 -14 17 C-14 17.66 -14 18.32 -14 19 C-15.65 19.33 -17.3 19.66 -19 20 C-18.07038578 18.84775972 -17.1309875 17.70340824 -16.1875 16.5625 C-15.66542969 15.92441406 -15.14335937 15.28632813 -14.60546875 14.62890625 C-13 13 -13 13 -10 12 C-9.31497615 10.67600432 -8.65140789 9.3408542 -8 8 C-6.67225712 6.5389496 -5.29368324 5.12291926 -3.875 3.75 C-3.15054687 3.04359375 -2.42609375 2.3371875 -1.6796875 1.609375 C-1.12539063 1.07828125 -0.57109375 0.5471875 0 0 Z " fill="#649FE6" transform="translate(334,178)"/>
<path d="M0 0 C0.86238281 0.00128906 1.72476563 0.00257812 2.61328125 0.00390625 C8.96841518 0.09341518 8.96841518 0.09341518 11.25 2.375 C10.38048706 2.404729 10.38048706 2.404729 9.4934082 2.43505859 C6.84934063 2.53072601 4.2060183 2.64023453 1.5625 2.75 C0.65048828 2.7809375 -0.26152344 2.811875 -1.20117188 2.84375 C-5.76203631 3.04276954 -9.61190275 3.23190122 -13.75 5.375 C-13.75 7.355 -13.75 9.335 -13.75 11.375 C-14.74 11.375 -15.73 11.375 -16.75 11.375 C-16.625 8.125 -16.625 8.125 -15.75 4.375 C-10.7438015 -0.15137117 -6.39198075 -0.1848518 0 0 Z " fill="#91B9E0" transform="translate(66.75,126.625)"/>
<path d="M0 0 C2.475 0.495 2.475 0.495 5 1 C-6.07438395 12.76653295 -6.07438395 12.76653295 -12 13 C-14.578125 11.34765625 -14.578125 11.34765625 -17.25 9.0625 C-18.14203125 8.31097656 -19.0340625 7.55945313 -19.953125 6.78515625 C-20.62859375 6.19605469 -21.3040625 5.60695312 -22 5 C-20.1484375 4.34375 -20.1484375 4.34375 -18 4 C-17.21625 4.825 -16.4325 5.65 -15.625 6.5 C-14.75875 7.325 -13.8925 8.15 -13 9 C-9.65522481 8.86620899 -7.16445749 8.05481916 -4 7 C-3.67 5.35 -3.34 3.7 -3 2 C-2.01 2 -1.02 2 0 2 C0 1.34 0 0.68 0 0 Z " fill="#5793D5" transform="translate(260,161)"/>
<path d="M0 0 C3.03796653 -0.45107553 5.9504546 -0.28769296 9 0 C5.94803178 3.16515303 2.56151404 5.62948633 -1 8.1875 C-1.6290625 8.65091797 -2.258125 9.11433594 -2.90625 9.59179688 C-7.64460604 13 -7.64460604 13 -11 13 C-11 12.34 -11 11.68 -11 11 C-10.34 11 -9.68 11 -9 11 C-8.9071875 10.071875 -8.9071875 10.071875 -8.8125 9.125 C-8.544375 8.42375 -8.27625 7.7225 -8 7 C-7.21625 6.690625 -6.4325 6.38125 -5.625 6.0625 C-2.75374837 5.24432424 -2.75374837 5.24432424 -1.75 2.375 C-0.88375 1.199375 -0.88375 1.199375 0 0 Z " fill="#85B4EB" transform="translate(276,148)"/>
<path d="M0 0 C-0.99 0 -1.98 0 -3 0 C-3 0.99 -3 1.98 -3 3 C-6 5 -6 5 -8.625 5.5 C-9.40875 5.665 -10.1925 5.83 -11 6 C-11.33 6.66 -11.66 7.32 -12 8 C-14.97 7.505 -14.97 7.505 -18 7 C-18 7.66 -18 8.32 -18 9 C-20.64 9.33 -23.28 9.66 -26 10 C-22.13110881 6.67779996 -17.61085923 4.81236515 -13 2.75 C-12.19304687 2.37359375 -11.38609375 1.9971875 -10.5546875 1.609375 C-9.77351563 1.25875 -8.99234375 0.908125 -8.1875 0.546875 C-7.47980469 0.22557617 -6.77210938 -0.09572266 -6.04296875 -0.42675781 C-3.64956361 -1.09832991 -2.32269775 -0.79728558 0 0 Z " fill="#66A3EB" transform="translate(315,108)"/>
<path d="M0 0 C3.12716497 3.12716497 4.11709078 5.60329245 4.3125 10 C4.27125 10.721875 4.23 11.44375 4.1875 12.1875 C2.7268715 9.54011084 2.1875 8.29301666 2.1875 5.1875 C1.548125 4.919375 0.90875 4.65125 0.25 4.375 C-1.8125 3.1875 -1.8125 3.1875 -2.8125 0.1875 C-6.1125 -0.1425 -9.4125 -0.4725 -12.8125 -0.8125 C-12.8125 -0.1525 -12.8125 0.5075 -12.8125 1.1875 C-14.1325 1.1875 -15.4525 1.1875 -16.8125 1.1875 C-17.1425 1.8475 -17.4725 2.5075 -17.8125 3.1875 C-18.4725 2.5275 -19.1325 1.8675 -19.8125 1.1875 C-12.41935571 -4.0213062 -8.10782574 -5.22504325 0 0 Z " fill="#88B8E7" transform="translate(354.8125,175.8125)"/>
<path d="M0 0 C1.65 0 3.3 0 5 0 C3.33830526 4.30577504 0.16919694 7.09011855 -3.0625 10.25 C-3.61744141 10.80429687 -4.17238281 11.35859375 -4.74414062 11.9296875 C-8.85956743 16 -8.85956743 16 -10 16 C-10.625 13.125 -10.625 13.125 -11 10 C-9 8 -9 8 -6.375 7.875 C-5.59125 7.91625 -4.8075 7.9575 -4 8 C-3.34 6.68 -2.68 5.36 -2 4 C-1.34 4 -0.68 4 0 4 C0 2.68 0 1.36 0 0 Z " fill="#70ACE6" transform="translate(276,268)"/>
<path d="M0 0 C0 4.53846154 0 4.53846154 -1 7 C-3.5625 8.75 -3.5625 8.75 -6 10 C-5.67 10.66 -5.34 11.32 -5 12 C-5.9375 14.625 -5.9375 14.625 -7 17 C-7.99 17 -8.98 17 -10 17 C-10 16.34 -10 15.68 -10 15 C-11.98 15.66 -13.96 16.32 -16 17 C-14.88559348 13.65678045 -14.02527657 12.93980381 -11.375 10.75 C-7.36917659 7.35878848 -3.6577926 3.76066802 0 0 Z " fill="#3389ED" transform="translate(314,198)"/>
<path d="M0 0 C1.39456452 0.00667256 2.78911118 0.01863093 4.18359375 0.03515625 C4.89451172 0.03966797 5.60542969 0.04417969 6.33789062 0.04882812 C8.09899388 0.06064761 9.86005411 0.07858362 11.62109375 0.09765625 C11.62109375 0.42765625 11.62109375 0.75765625 11.62109375 1.09765625 C9.20703125 1.5 9.20703125 1.5 6.79296875 1.90234375 C5.24996094 2.15951172 5.24996094 2.15951172 3.67578125 2.421875 C2.03996094 2.69451172 2.03996094 2.69451172 0.37109375 2.97265625 C-1.19511719 3.23369141 -1.19511719 3.23369141 -2.79296875 3.5 C-7.14648438 4.22558594 -11.5 4.95117188 -15.85351562 5.67675781 C-16.94986328 5.85948242 -18.04621094 6.04220703 -19.17578125 6.23046875 C-20.17448242 6.39691895 -21.17318359 6.56336914 -22.20214844 6.73486328 C-22.92047852 6.85458496 -23.63880859 6.97430664 -24.37890625 7.09765625 C-24.37890625 6.43765625 -24.37890625 5.77765625 -24.37890625 5.09765625 C-18.34047533 3.05486792 -12.68330551 1.72602562 -6.3125 1.30859375 C-3.28599065 0.97842909 -3.60416707 0.10416668 0 0 Z " fill="#99C6EC" transform="translate(362.37890625,364.90234375)"/>
<path d="M0 0 C0.33 0 0.66 0 1 0 C1.07593214 7.77784995 1.12855012 15.55560468 1.16479492 23.33374023 C1.1799012 25.98091199 1.2003873 28.62805864 1.22631836 31.27514648 C1.26261991 35.07542101 1.27970803 38.87536526 1.29296875 42.67578125 C1.30845261 43.86335526 1.32393646 45.05092926 1.33988953 46.27449036 C1.34011612 47.37540512 1.34034271 48.47631989 1.34057617 49.6105957 C1.34723801 50.58100296 1.35389984 51.55141022 1.36076355 52.55122375 C0.94295489 55.38720847 0.21650523 56.25648828 -2 58 C-2 56.02 -2 54.04 -2 52 C-1.34 52 -0.68 52 0 52 C0 34.84 0 17.68 0 0 Z " fill="#4885D2" transform="translate(449,300)"/>
<path d="M0 0 C-3.32457529 1.89975731 -6.4351503 2.56375551 -10.1875 3.25 C-16.85811359 4.59533383 -23.05885964 6.6526392 -29.40112305 9.10644531 C-34.69324285 11.10225238 -34.69324285 11.10225238 -38 10 C-35.29301453 7.29301453 -32.67512164 7.02421423 -29 6 C-27.92105469 5.51789063 -26.84210938 5.03578125 -25.73046875 4.5390625 C-22.06702284 2.94077773 -18.42894181 2.07961777 -14.5 1.3125 C-13.2521875 1.06113281 -12.004375 0.80976562 -10.71875 0.55078125 C-7.08360143 0.01238214 -3.66840177 -0.09927376 0 0 Z " fill="#699AD6" transform="translate(352,122)"/>
<path d="M0 0 C2.33294775 -0.04241723 4.66702567 -0.04092937 7 0 C7.33 0.33 7.66 0.66 8 1 C9.34747084 1.23075082 10.70377565 1.41153063 12.0625 1.5625 C13.361875 1.706875 14.66125 1.85125 16 2 C12.22007255 4.18110696 8.13504271 5.14094795 3.9375 6.1875 C3.21755859 6.37763672 2.49761719 6.56777344 1.75585938 6.76367188 C-3.63759921 8.12080026 -3.63759921 8.12080026 -7 7 C-4.35261084 5.5393715 -3.10551666 5 0 5 C0 3.35 0 1.7 0 0 Z " fill="#5B9EE6" transform="translate(321,370)"/>
<path d="M0 0 C1.98 0 3.96 0 6 0 C4.38873705 4.05227809 1.49978002 6.76221847 -1.5625 9.75 C-2.06974609 10.25660156 -2.57699219 10.76320312 -3.09960938 11.28515625 C-6.85951188 15 -6.85951188 15 -8 15 C-8 12.36 -8 9.72 -8 7 C-5.525 7.495 -5.525 7.495 -3 8 C-3 7.34 -3 6.68 -3 6 C-2.34 6 -1.68 6 -1 6 C-1.33 5.01 -1.66 4.02 -2 3 C-1.34 3 -0.68 3 0 3 C0 2.01 0 1.02 0 0 Z " fill="#6DAAE6" transform="translate(323,220)"/>
<path d="M0 0 C-2.31164336 2.31164336 -3.09910078 2.36046002 -6.24609375 2.78125 C-7.08333984 2.90113281 -7.92058594 3.02101563 -8.78320312 3.14453125 C-9.65912109 3.26183594 -10.53503906 3.37914063 -11.4375 3.5 C-13.16632464 3.73255439 -14.89425671 3.97186938 -16.62109375 4.21875 C-17.3886499 4.32123047 -18.15620605 4.42371094 -18.94702148 4.52929688 C-21.29364291 4.93957168 -21.29364291 4.93957168 -24 7 C-27.13671875 7.4140625 -27.13671875 7.4140625 -30.6875 7.625 C-31.86699219 7.69976562 -33.04648437 7.77453125 -34.26171875 7.8515625 C-35.61716797 7.92503906 -35.61716797 7.92503906 -37 8 C-26.74494033 2.27148787 -11.6021916 -0.25499322 0 0 Z " fill="#89BAEB" transform="translate(364,95)"/>
<path d="M0 0 C1.58844727 -0.0309375 1.58844727 -0.0309375 3.20898438 -0.0625 C4.22927734 -0.06765625 5.24957031 -0.0728125 6.30078125 -0.078125 C7.70517456 -0.09214355 7.70517456 -0.09214355 9.13793945 -0.10644531 C11.6875 0.25 11.6875 0.25 15.6875 3.25 C6.1175 3.25 -3.4525 3.25 -13.3125 3.25 C-10.84448341 -1.68603319 -4.93099806 0.02374954 0 0 Z " fill="#8AB6ED" transform="translate(430.3125,126.75)"/>
<path d="M0 0 C5.96983632 0.48693608 10.51710651 3.08211721 15.6875 5.875 C16.54150391 6.32230469 17.39550781 6.76960938 18.27539062 7.23046875 C25.15083413 10.89233104 25.15083413 10.89233104 28 14 C26.68 14 25.36 14 24 14 C24 13.34 24 12.68 24 12 C21.36 11.34 18.72 10.68 16 10 C16 9.34 16 8.68 16 8 C14.68 8 13.36 8 12 8 C12 7.34 12 6.68 12 6 C9.69 5.67 7.38 5.34 5 5 C4.67 4.01 4.34 3.02 4 2 C1.99983534 0.79117904 1.99983534 0.79117904 0 0 Z " fill="#5297DE" transform="translate(196,111)"/>
<path d="M0 0 C1.98 0 3.96 0 6 0 C5.67 0.66 5.34 1.32 5 2 C10.34501386 5.56334257 16.91726909 4.01378848 23 3 C20.24651929 6.44185089 18.68837314 7.8599919 14.3125 8.75 C8.62541599 8.434655 4.1833647 4.57471943 0 1 C0 0.67 0 0.34 0 0 Z " fill="#5F9AE2" transform="translate(229,293)"/>
<path d="M0 0 C2.625 -0.1875 2.625 -0.1875 5 0 C3.47048225 3.78083039 1.18109791 5.85198638 -1.875 8.5 C-5.024415 11.24516173 -8.07926589 14.01134184 -11 17 C-11 16.34 -11 15.68 -11 15 C-11.99 14.67 -12.98 14.34 -14 14 C-12.35 14 -10.7 14 -9 14 C-9.33 13.01 -9.66 12.02 -10 11 C-8 8 -8 8 -6 7.5625 C-3.8273292 7.19825166 -3.8273292 7.19825166 -2.875 5.125 C-2.441875 4.073125 -2.441875 4.073125 -2 3 C-1.34 2.01 -0.68 1.02 0 0 Z " fill="#5D9AE2" transform="translate(341,203)"/>
<path d="M0 0 C-1.48314794 3.9101173 -3.46250372 4.94331612 -7 7 C-8.2684375 8.3303125 -8.2684375 8.3303125 -9.5625 9.6875 C-12 12 -12 12 -16 12 C-16.66 11.67 -17.32 11.34 -18 11 C-15.70955906 9.35243739 -13.41771923 7.70688669 -11.125 6.0625 C-10.14853516 5.35963867 -10.14853516 5.35963867 -9.15234375 4.64257812 C-2.67277428 0 -2.67277428 0 0 0 Z " fill="#5B98E4" transform="translate(274,353)"/>
<path d="M0 0 C0.66 0.33 1.32 0.66 2 1 C1.72265625 2.90234375 1.72265625 2.90234375 1 5 C-1.68628093 6.17819339 -4.22490086 7.10526976 -7 8 C-8.43915633 8.57923491 -9.87673828 9.16240122 -11.3125 9.75 C-15 11 -15 11 -18 10 C-16.12641553 8.89343312 -14.25106361 7.78985854 -12.375 6.6875 C-11.33085937 6.07261719 -10.28671875 5.45773437 -9.2109375 4.82421875 C-6.17423183 3.09898573 -3.19452653 1.41419584 0 0 Z " fill="#6CA2E4" transform="translate(292,342)"/>
<path d="M0 0 C0 0.33 0 0.66 0 1 C-0.55985596 1.05534912 -1.11971191 1.11069824 -1.6965332 1.16772461 C-4.23555805 1.4207582 -6.774019 1.6790698 -9.3125 1.9375 C-10.19357422 2.02451172 -11.07464844 2.11152344 -11.98242188 2.20117188 C-13.25375977 2.33168945 -13.25375977 2.33168945 -14.55078125 2.46484375 C-15.72120972 2.58267212 -15.72120972 2.58267212 -16.9152832 2.70288086 C-19.18882001 2.96337997 -19.18882001 2.96337997 -22 4 C-23.47965926 4.14573058 -24.96403843 4.24663268 -26.44921875 4.31640625 C-27.72055664 4.37924805 -27.72055664 4.37924805 -29.01757812 4.44335938 C-30.33918945 4.50233398 -30.33918945 4.50233398 -31.6875 4.5625 C-32.58017578 4.60568359 -33.47285156 4.64886719 -34.39257812 4.69335938 C-36.59490108 4.79935353 -38.79733473 4.90142051 -41 5 C-41 4.67 -41 4.34 -41 4 C-27.27988146 1.57611239 -13.97498239 -0.24758827 0 0 Z " fill="#71A7E3" transform="translate(394,319)"/>
<path d="M0 0 C0.33 0.66 0.66 1.32 1 2 C0.67 2.99 0.34 3.98 0 5 C0.99 5 1.98 5 3 5 C3.33 6.32 3.66 7.64 4 9 C5.32 9 6.64 9 8 9 C9.75 10.1875 9.75 10.1875 11 12 C11.1875 14.6875 11.1875 14.6875 11 17 C5.35573231 12.31645873 -0.0058046 7.3792354 -5 2 C-5 1.67 -5 1.34 -5 1 C-3.35 0.67 -1.7 0.34 0 0 Z " fill="#5BA0EB" transform="translate(190,248)"/>
<path d="M0 0 C6.3545334 0.50432805 12.59596143 1.3616105 18.875 2.4375 C19.98089478 2.62082886 19.98089478 2.62082886 21.10913086 2.80786133 C24.70054385 3.44047946 27.85820701 4.10011995 31 6 C30.14277344 5.9278125 29.28554687 5.855625 28.40234375 5.78125 C22.58538524 5.30907298 16.83666909 4.86426351 11 5 C11 4.34 11 3.68 11 3 C9.6696875 3.061875 9.6696875 3.061875 8.3125 3.125 C5.02722987 3.00102754 2.94550705 2.38612096 0 1 C0 0.67 0 0.34 0 0 Z " fill="#89B9ED" transform="translate(132,94)"/>
<path d="M0 0 C2.98528087 1.02352487 5.00831019 2.0070317 7.4375 4.0625 C10.39018508 6.29501799 12.36669625 6.60507568 16 7 C16.99 7.33 17.98 7.66 19 8 C20.32 8 21.64 8 23 8 C23 8.66 23 9.32 23 10 C21.824375 10.2165625 21.824375 10.2165625 20.625 10.4375 C18.03578982 10.87798925 18.03578982 10.87798925 16 12 C9.50229424 10.47112806 4.54167651 4.61219944 0 0 Z " fill="#70AAF1" transform="translate(214,392)"/>
<path d="M0 0 C5.52677733 -0.19392201 9.75614911 0.2520497 15 2 C15 2.66 15 3.32 15 4 C17.97 4 20.94 4 24 4 C24 4.33 24 4.66 24 5 C22.04174127 5.02694851 20.08337774 5.04637218 18.125 5.0625 C17.03445312 5.07410156 15.94390625 5.08570313 14.8203125 5.09765625 C12 5 12 5 10 4 C8.29636178 3.77377919 6.58671299 3.59111527 4.875 3.4375 C3.96492187 3.35371094 3.05484375 3.26992188 2.1171875 3.18359375 C1.41851562 3.12300781 0.71984375 3.06242187 0 3 C0 2.01 0 1.02 0 0 Z " fill="#4993E4" transform="translate(128,321)"/>
<path d="M0 0 C0.99 0 1.98 0 3 0 C3 1.32 3 2.64 3 4 C3.94875 4.28875 4.8975 4.5775 5.875 4.875 C9 6 9 6 11 8 C13.89223503 8.46396693 13.89223503 8.46396693 17.125 8.625 C18.76855469 8.73714844 18.76855469 8.73714844 20.4453125 8.8515625 C21.28835937 8.90054687 22.13140625 8.94953125 23 9 C23 9.33 23 9.66 23 10 C20.77110504 10.05428973 18.54182529 10.09292338 16.3125 10.125 C14.45044922 10.15980469 14.45044922 10.15980469 12.55078125 10.1953125 C7.98456501 9.94414549 5.22213899 8.99092351 1.6875 6.125 C0 4 0 4 0 0 Z " fill="#80B2EB" transform="translate(50,351)"/>
<path d="M0 0 C2 3 2 3 1.83984375 5.421875 C0.87811852 8.3741478 -0.34580091 9.97130909 -2.4375 12.25 C-3.05496094 12.93578125 -3.67242187 13.6215625 -4.30859375 14.328125 C-6 16 -6 16 -8 17 C-8.33 15.02 -8.66 13.04 -9 11 C-7.35 11 -5.7 11 -4 11 C-3.67 9.35 -3.34 7.7 -3 6 C-2.34 6 -1.68 6 -1 6 C-0.67 4.02 -0.34 2.04 0 0 Z " fill="#6AA5EA" transform="translate(356,185)"/>
<path d="M0 0 C2.6875 -0.3125 2.6875 -0.3125 6 0 C8.5625 2.3125 8.5625 2.3125 11 5 C11.9075 5.53625 12.815 6.0725 13.75 6.625 C16 8 16 8 17 11 C16.01 11.495 16.01 11.495 15 12 C12.49618432 10.19272453 9.99761453 8.37833327 7.5 6.5625 C6.78457031 6.04623047 6.06914062 5.52996094 5.33203125 4.99804688 C4.65527344 4.50498047 3.97851562 4.01191406 3.28125 3.50390625 C2.65283203 3.04830322 2.02441406 2.5927002 1.37695312 2.12329102 C0.92255859 1.75260498 0.46816406 1.38191895 0 1 C0 0.67 0 0.34 0 0 Z " fill="#6FA5E4" transform="translate(222,153)"/>
<path d="M0 0 C0 0.66 0 1.32 0 2 C-0.66 2 -1.32 2 -2 2 C-2.66 3.32 -3.32 4.64 -4 6 C-5.0725 5.979375 -6.145 5.95875 -7.25 5.9375 C-10.14790424 5.9857984 -12.28612141 6.13155885 -15 7 C-15 7.66 -15 8.32 -15 9 C-16.65 8.67 -18.3 8.34 -20 8 C-16.80319607 5.86879738 -13.51404109 4.37998891 -10 2.875 C-9.3709375 2.59785156 -8.741875 2.32070313 -8.09375 2.03515625 C-5.2216304 0.79990142 -3.16054884 0 0 0 Z " fill="#6DA4E2" transform="translate(314,334)"/>
<path d="M0 0 C5.94 0.66 11.88 1.32 18 2 C17.67 2.99 17.34 3.98 17 5 C18.65 5.66 20.3 6.32 22 7 C21.67 7.66 21.34 8.32 21 9 C14.07 6.36 7.14 3.72 0 1 C0 0.67 0 0.34 0 0 Z " fill="#5C99E0" transform="translate(172,128)"/>
<path d="M0 0 C0.66 0.33 1.32 0.66 2 1 C1.34 2.65 0.68 4.3 0 6 C-0.66 6 -1.32 6 -2 6 C-2 6.66 -2 7.32 -2 8 C-2.66 8 -3.32 8 -4 8 C-4.04125 8.598125 -4.0825 9.19625 -4.125 9.8125 C-5 12 -5 12 -7.9375 13.8125 C-8.948125 14.204375 -9.95875 14.59625 -11 15 C-11.66 14.67 -12.32 14.34 -13 14 C-12.22914063 13.24074219 -11.45828125 12.48148438 -10.6640625 11.69921875 C-9.65090904 10.69544634 -8.63789552 9.69153268 -7.625 8.6875 C-7.11710937 8.18798828 -6.60921875 7.68847656 -6.0859375 7.17382812 C-3.77145867 4.87457613 -1.81652517 2.72478775 0 0 Z " fill="#6AA6EA" transform="translate(296,215)"/>
<path d="M0 0 C0.66 0 1.32 0 2 0 C4.65657337 3.89872542 4.16049435 7.97876372 3.9765625 12.484375 C3.93902359 13.70776581 3.93902359 13.70776581 3.90072632 14.95587158 C3.81872056 17.55434945 3.72205694 20.15204505 3.625 22.75 C3.56674052 24.51429122 3.50943767 26.27861431 3.453125 28.04296875 C3.31317086 32.36242704 3.16007115 36.68124231 3 41 C2.67 41 2.34 41 2 41 C1.97494385 39.93563721 1.9498877 38.87127441 1.92407227 37.7746582 C1.8296833 33.81425571 1.72954025 29.85401577 1.62768555 25.89379883 C1.58445555 24.18192353 1.54277235 22.47000843 1.50268555 20.75805664 C1.44469286 18.29300966 1.38108303 15.82816082 1.31640625 13.36328125 C1.29969376 12.60163162 1.28298126 11.83998199 1.26576233 11.05525208 C1.16082086 7.2650395 0.89607373 3.6895278 0 0 Z " fill="#5194EB" transform="translate(446,130)"/>
<path d="M0 0 C1.21171875 0.00322266 2.4234375 0.00644531 3.671875 0.00976562 C4.94289063 0.01814453 6.21390625 0.02652344 7.5234375 0.03515625 C8.8021875 0.03966797 10.0809375 0.04417969 11.3984375 0.04882812 C14.56515042 0.06064422 17.73177106 0.0771181 20.8984375 0.09765625 C20.8984375 0.42765625 20.8984375 0.75765625 20.8984375 1.09765625 C16.71128621 1.4354674 12.52366765 1.76710475 8.3359375 2.09765625 C6.56379883 2.24074219 6.56379883 2.24074219 4.75585938 2.38671875 C-0.87908665 2.8286753 -6.44872642 3.23046885 -12.1015625 3.09765625 C-7.64343858 0.86859429 -5.07753763 -0.02372681 0 0 Z " fill="#96C2ED" transform="translate(386.1015625,361.90234375)"/>
<path d="M0 0 C2.18841354 3.28262031 2.24854665 4.31790898 2.1875 8.125 C2.18105469 9.01445312 2.17460938 9.90390625 2.16796875 10.8203125 C2 13 2 13 1 14 C0.76636119 15.84891946 0.58696365 17.70488031 0.4375 19.5625 C0.35371094 20.57441406 0.26992187 21.58632812 0.18359375 22.62890625 C0.12300781 23.41136719 0.06242187 24.19382813 0 25 C-0.33 25 -0.66 25 -1 25 C-1.22282257 21.95877308 -1.42868018 18.9179572 -1.625 15.875 C-1.68945312 15.0190625 -1.75390625 14.163125 -1.8203125 13.28125 C-2.12306989 8.36144244 -1.98895393 4.6307706 0 0 Z " fill="#388CEC" transform="translate(104,126)"/>
<path d="M0 0 C0.8531488 2.38881665 1.12563748 3.62308755 0.3125 6.0625 C-2.05551342 9.55813886 -4.10865631 10.81144653 -8.25 11.6875 C-9.1575 11.790625 -10.065 11.89375 -11 12 C-7.49102731 7.81576108 -3.91939465 3.80411834 0 0 Z " fill="#599BEA" transform="translate(282,230)"/>
<path d="M0 0 C7.63676234 0.83008286 14.94848043 2.94434152 22 6 C22 6.66 22 7.32 22 8 C22.66 8.33 23.32 8.66 24 9 C19.2081713 8.41563065 15.38193346 6.99877667 11 5 C9.77204609 4.47631378 8.54289579 3.95542302 7.3125 3.4375 C4.82615897 2.35852182 2.40281661 1.24946464 0 0 Z " fill="#6D9EDA" transform="translate(176,331)"/>
<path d="M0 0 C6.62682898 3.73512179 12.05855541 8.17778867 17 14 C17 14.66 17 15.32 17 16 C15.68 15.34 14.36 14.68 13 14 C13 13.34 13 12.68 13 12 C12.401875 11.731875 11.80375 11.46375 11.1875 11.1875 C9.00152146 10.00082594 7.58667406 8.90400887 6 7 C6 6.34 6 5.68 6 5 C3.03 4.505 3.03 4.505 0 4 C0 2.68 0 1.36 0 0 Z " fill="#548DDE" transform="translate(194,224)"/>
<path d="M0 0 C0.33 1.32 0.66 2.64 1 4 C-2 6 -2 6 -4 6 C-4.33 6.99 -4.66 7.98 -5 9 C-5.66 9 -6.32 9 -7 9 C-7.2475 9.639375 -7.495 10.27875 -7.75 10.9375 C-9 13 -9 13 -11.125 13.75 C-12.053125 13.87375 -12.053125 13.87375 -13 14 C-11.43416404 9.96278439 -8.55826135 7.52929418 -5.375 4.75 C-4.859375 4.29109375 -4.34375 3.8321875 -3.8125 3.359375 C-2.5465398 2.23407704 -1.27392058 1.11627823 0 0 Z " fill="#77AAE3" transform="translate(264,248)"/>
<path d="M0 0 C0 0.66 0 1.32 0 2 C-0.99 2 -1.98 2 -3 2 C-3.103125 2.70125 -3.20625 3.4025 -3.3125 4.125 C-4.09359003 7.39137647 -5.42058743 10.0471852 -7 13 C-7.66 13 -8.32 13 -9 13 C-8.98674742 9.89889635 -8.81111674 7.00164858 -8 4 C-3.41463415 0 -3.41463415 0 0 0 Z " fill="#4993E9" transform="translate(90,93)"/>
<path d="M0 0 C0.66 0.33 1.32 0.66 2 1 C-0.92294244 5.09211942 -4.36898931 8.86729771 -9 11 C-10.32 10.67 -11.64 10.34 -13 10 C-8.71 6.7 -4.42 3.4 0 0 Z " fill="#8BB8EB" transform="translate(265,130)"/>
<path d="M0 0 C0.33 0.99 0.66 1.98 1 3 C-1.23775234 6.3566285 -1.93320048 6.57996014 -5.625 7.6875 C-6.85089844 8.06455078 -6.85089844 8.06455078 -8.1015625 8.44921875 C-8.72804688 8.63097656 -9.35453125 8.81273437 -10 9 C-10.66 8.34 -11.32 7.68 -12 7 C-8.04 4.69 -4.08 2.38 0 0 Z " fill="#5B9BE7" transform="translate(279,122)"/>
<path d="M0 0 C4.2829452 0.5479083 6.85135641 2.02432804 10.3125 4.5625 C11.19550781 5.20316406 12.07851562 5.84382812 12.98828125 6.50390625 C13.65214844 6.99761719 14.31601563 7.49132812 15 8 C12.34501768 9.0169313 11.30844625 9.13022151 8.640625 8.00390625 C7.85171875 7.52824219 7.0628125 7.05257812 6.25 6.5625 C5.45078125 6.08941406 4.6515625 5.61632812 3.828125 5.12890625 C3.22484375 4.75636719 2.6215625 4.38382813 2 4 C2 3.34 2 2.68 2 2 C1.34 2 0.68 2 0 2 C0 1.34 0 0.68 0 0 Z " fill="#7CADE5" transform="translate(224,125)"/>
<path d="M0 0 C14.78132118 1.74259681 14.78132118 1.74259681 21 5 C17.99032056 6.00322648 16.5759723 6.03098357 13.5 5.6875 C12.7265625 5.60886719 11.953125 5.53023438 11.15625 5.44921875 C9 5 9 5 6 3 C4.01200182 2.29835358 2.01301483 1.62627128 0 1 C0 0.67 0 0.34 0 0 Z " fill="#559AE8" transform="translate(175,105)"/>
<path d="M0 0 C-3.03749655 2.39122069 -6.17795039 4.32254409 -9.5625 6.1875 C-10.51253906 6.71730469 -11.46257812 7.24710938 -12.44140625 7.79296875 C-15 9 -15 9 -18 9 C-17.34 8.01 -16.68 7.02 -16 6 C-15.01 6 -14.02 6 -13 6 C-12.67 5.01 -12.34 4.02 -12 3 C-7.9033589 0.87289789 -4.63766855 -0.42160623 0 0 Z " fill="#6F9FE0" transform="translate(303,138)"/>
<path d="M0 0 C6.75 0.75 6.75 0.75 9 3 C9.66 3.103125 10.32 3.20625 11 3.3125 C11.99 3.6528125 11.99 3.6528125 13 4 C14.25 6.5625 14.25 6.5625 15 9 C11.32305352 7.62859834 8.04681411 5.96304199 4.6875 3.9375 C3.80449219 3.41027344 2.92148438 2.88304687 2.01171875 2.33984375 C1.34785156 1.89769531 0.68398437 1.45554688 0 1 C0 0.67 0 0.34 0 0 Z " fill="#6FA2E1" transform="translate(201,140)"/>
<path d="M0 0 C0.66 0 1.32 0 2 0 C2.33 4.29 2.66 8.58 3 13 C2.01 13.495 2.01 13.495 1 14 C-0.75417412 9.50492881 -1.28362108 5.8215583 -1 1 C-0.67 0.67 -0.34 0.34 0 0 Z " fill="#5C95E1" transform="translate(104,115)"/>
<path d="M0 0 C0.99 0.33 1.98 0.66 3 1 C1.69088122 2.50295185 0.37761608 4.00229311 -0.9375 5.5 C-1.66839844 6.3353125 -2.39929688 7.170625 -3.15234375 8.03125 C-3.76207031 8.6809375 -4.37179687 9.330625 -5 10 C-5.33 10 -5.66 10 -6 10 C-6 7.69 -6 5.38 -6 3 C-4.68 3.33 -3.36 3.66 -2 4 C-1.34 2.68 -0.68 1.36 0 0 Z " fill="#71A5E0" transform="translate(290,256)"/>
<path d="M0 0 C2.64 0 5.28 0 8 0 C8 0.66 8 1.32 8 2 C9.98 2.66 11.96 3.32 14 4 C13.67 4.99 13.34 5.98 13 7 C8.50202887 5.31326082 4.27113698 3.18326108 0 1 C0 0.67 0 0.34 0 0 Z " fill="#5E9AE1" transform="translate(198,383)"/>
<path d="M0 0 C3.3 0 6.6 0 10 0 C10 0.66 10 1.32 10 2 C11.65 2.33 13.3 2.66 15 3 C15 3.33 15 3.66 15 4 C9.01006953 4.3152595 5.36439644 3.68219822 0 1 C0 0.67 0 0.34 0 0 Z " fill="#6CA4E7" transform="translate(122,93)"/>
<path d="M0 0 C-0.721875 0.556875 -1.44375 1.11375 -2.1875 1.6875 C-4.97457299 3.97909334 -7.48641528 6.41459857 -10 9 C-10.66 8.67 -11.32 8.34 -12 8 C-11.34 7.01 -10.68 6.02 -10 5 C-10 4.01 -10 3.02 -10 2 C-6.49223216 0.39644899 -3.85645121 -0.22036864 0 0 Z " fill="#79B2EC" transform="translate(283,394)"/>
<path d="M0 0 C-2.51830747 3.12270126 -3.7261549 3.94523098 -7.75 4.75 C-9.35875 4.87375 -9.35875 4.87375 -11 5 C-8.45499142 -0.63537615 -5.97208347 -0.11059414 0 0 Z " fill="#358EEC" transform="translate(257,292)"/>
<path d="M0 0 C0 0.33 0 0.66 0 1 C-6.02900687 0.48758893 -12.02004643 -0.069785 -18 -1 C-18 -1.33 -18 -1.66 -18 -2 C-11.49467253 -3.42799871 -6.05595287 -2.75270585 0 0 Z " fill="#8BBAE8" transform="translate(142,120)"/>
<path d="M0 0 C-0.66 1.32 -1.32 2.64 -2 4 C-2.66 4 -3.32 4 -4 4 C-4 5.98 -4 7.96 -4 10 C-4.99 10 -5.98 10 -7 10 C-6.51020408 3.51020408 -6.51020408 3.51020408 -4.0625 1.0625 C-2 0 -2 0 0 0 Z " fill="#7AADE4" transform="translate(57,128)"/>
<path d="M0 0 C-0.99 0 -1.98 0 -3 0 C-3 0.99 -3 1.98 -3 3 C-6.6441774 5.4294516 -8.71241272 5.16179575 -13 5 C-9.25316241 0.83684713 -5.67827303 -2.10306409 0 0 Z " fill="#5B9AE6" transform="translate(315,108)"/>
<path d="M0 0 C-3.27672915 2.90292752 -5.95282609 3.58029064 -10.25 4.1875 C-11.32765625 4.34605469 -12.4053125 4.50460937 -13.515625 4.66796875 C-14.33546875 4.77753906 -15.1553125 4.88710938 -16 5 C-16 4.34 -16 3.68 -16 3 C-5.62642369 -0.44419134 -5.62642369 -0.44419134 0 0 Z " fill="#7AADDF" transform="translate(354,367)"/>
<path d="M0 0 C1.23556641 0.01740234 1.23556641 0.01740234 2.49609375 0.03515625 C3.32238281 0.04417969 4.14867187 0.05320313 5 0.0625 C5.63808594 0.07410156 6.27617187 0.08570313 6.93359375 0.09765625 C4.44524486 2.73791016 2.41485714 3.96624565 -1.06640625 5.09765625 C-2.05640625 5.09765625 -3.04640625 5.09765625 -4.06640625 5.09765625 C-2.94676868 0.13926128 -2.94676868 0.13926128 0 0 Z " fill="#5A99E9" transform="translate(278.06640625,147.90234375)"/>
<path d="M0 0 C0.33 0.66 0.66 1.32 1 2 C1.99 2.33 2.98 2.66 4 3 C4 3.33 4 3.66 4 4 C0.37 4.33 -3.26 4.66 -7 5 C-7.33 4.34 -7.66 3.68 -8 3 C-5.36 2.01 -2.72 1.02 0 0 Z " fill="#569CE8" transform="translate(131,361)"/>
<path d="M0 0 C0 4.00333149 -0.93272472 6.80957758 -3.625 9.8125 C-4.07875 10.204375 -4.5325 10.59625 -5 11 C-5.33 10.34 -5.66 9.68 -6 9 C-4.4775751 5.42230149 -2.97069541 2.54631035 0 0 Z M-8 11 C-7.34 11.33 -6.68 11.66 -6 12 C-6.99 12.66 -7.98 13.32 -9 14 C-8.67 13.01 -8.34 12.02 -8 11 Z " fill="#569DEC" transform="translate(334,178)"/>
<path d="M0 0 C1.98 0 3.96 0 6 0 C6 0.99 6 1.98 6 3 C3 5 3 5 0.8125 4.625 C0.214375 4.41875 -0.38375 4.2125 -1 4 C-0.67 2.68 -0.34 1.36 0 0 Z " fill="#3488EA" transform="translate(280,144)"/>
<path d="M0 0 C-0.5625 1.8125 -0.5625 1.8125 -2 4 C-5.5 5.8125 -5.5 5.8125 -9 7 C-9.66 6.67 -10.32 6.34 -11 6 C-9.54550599 4.9944239 -8.08627557 3.99569565 -6.625 3 C-5.40683594 2.1646875 -5.40683594 2.1646875 -4.1640625 1.3125 C-2 0 -2 0 0 0 Z " fill="#7CAEE1" transform="translate(274,353)"/>
<path d="M0 0 C0 0.33 0 0.66 0 1 C-6.24273068 3.4793824 -11.28299653 4.31985731 -18 4 C-12.23174747 0.94923533 -6.54078263 -0.32703913 0 0 Z " fill="#5F98D7" transform="translate(353,324)"/>
<path d="M0 0 C2.475 0.495 2.475 0.495 5 1 C4.60196439 3.88575819 4.20990931 4.82189513 1.9375 6.75 C1.298125 7.1625 0.65875 7.575 0 8 C0 5.36 0 2.72 0 0 Z " fill="#5F9FE8" transform="translate(315,227)"/>
<path d="M0 0 C1.93681161 -0.08107583 3.8745934 -0.13922475 5.8125 -0.1875 C6.89144531 -0.22230469 7.97039062 -0.25710938 9.08203125 -0.29296875 C12 0 12 0 13.88671875 1.51171875 C14.25410156 2.00285156 14.62148437 2.49398438 15 3 C4.44191344 2.03644647 4.44191344 2.03644647 0 1 C0 0.67 0 0.34 0 0 Z " fill="#A1C8EB" transform="translate(144,368)"/>
<path d="M0 0 C1.98 0 3.96 0 6 0 C5.04578192 1.14926266 4.08647955 2.29430541 3.125 3.4375 C2.59132813 4.07558594 2.05765625 4.71367187 1.5078125 5.37109375 C0 7 0 7 -2 8 C-2 6.68 -2 5.36 -2 4 C-1.01 4 -0.02 4 1 4 C0.67 2.68 0.34 1.36 0 0 Z " fill="#7BB5E6" transform="translate(308,236)"/>
<path d="M0 0 C0 2.70254461 -0.03430669 4.50529228 -1 7 C-2.875 8.3125 -2.875 8.3125 -5 9 C-5.99 8.67 -6.98 8.34 -8 8 C-5.36 5.36 -2.72 2.72 0 0 Z " fill="#68A8E9" transform="translate(314,198)"/>
<path d="M0 0 C1.62418745 -0.08090971 3.24951745 -0.13914995 4.875 -0.1875 C5.77992188 -0.22230469 6.68484375 -0.25710938 7.6171875 -0.29296875 C8.79667969 -0.14794922 8.79667969 -0.14794922 10 0 C10.66 0.99 11.32 1.98 12 3 C10.37419034 2.88601335 8.74932843 2.75844341 7.125 2.625 C6.22007812 2.55539062 5.31515625 2.48578125 4.3828125 2.4140625 C2 2 2 2 0 0 Z " fill="#3B88E3" transform="translate(157,369)"/>
<path d="M0 0 C-3.36423277 2.96052484 -6.69159287 3.92289822 -11 5 C-11 4.34 -11 3.68 -11 3 C-10.34 3 -9.68 3 -9 3 C-9 2.34 -9 1.68 -9 1 C-5.8035914 -0.06546953 -3.34252724 -0.07427838 0 0 Z " fill="#639DE2" transform="translate(314,133)"/>
<path d="M0 0 C1.41750563 0.11509661 2.83401169 0.24253658 4.25 0.375 C5.03890625 0.44460938 5.8278125 0.51421875 6.640625 0.5859375 C9.085877 1.01507113 10.84836903 1.78600638 13 3 C7.52667068 4.46845421 4.88077452 3.44038726 0 1 C0 0.67 0 0.34 0 0 Z " fill="#5698DF" transform="translate(183,377)"/>
<path d="M0 0 C4.2742558 1.5830577 6.26531794 4.50568404 9 8 C4.75153925 7.52794881 2.73180712 5.11122478 0 2 C0 1.34 0 0.68 0 0 Z " fill="#5B8FDC" transform="translate(211,240)"/>
<path d="M0 0 C0.33 0 0.66 0 1 0 C1.08114106 1.77007714 1.13925505 3.54122098 1.1875 5.3125 C1.23970703 6.79169922 1.23970703 6.79169922 1.29296875 8.30078125 C1 11 1 11 -0.51171875 12.85546875 C-1.00285156 13.23316406 -1.49398438 13.61085938 -2 14 C-2 12.02 -2 10.04 -2 8 C-1.34 8 -0.68 8 0 8 C0 5.36 0 2.72 0 0 Z " fill="#71A4DF" transform="translate(449,344)"/>
<path d="M0 0 C1.21236328 0.02707031 1.21236328 0.02707031 2.44921875 0.0546875 C3.37154297 0.08949219 3.37154297 0.08949219 4.3125 0.125 C3.3125 2.125 3.3125 2.125 1.6875 2.8125 C-1.56175079 3.240033 -4.47523804 2.68096842 -7.6875 2.125 C-4.48369983 -0.01086678 -3.66810033 -0.10632175 0 0 Z " fill="#358CEB" transform="translate(379.6875,320.875)"/>
<path d="M0 0 C0.625 1.8125 0.625 1.8125 1 4 C0.01 5.485 0.01 5.485 -1 7 C-2.32 6.67 -3.64 6.34 -5 6 C-5 5.34 -5 4.68 -5 4 C-3.37373596 2.61767557 -1.7074998 1.28062485 0 0 Z " fill="#5D9DEA" transform="translate(250,262)"/>
<path d="M0 0 C0.33 1.32 0.66 2.64 1 4 C-1.98646769 5.99097846 -4.59687262 6.94124926 -8 8 C-5.33333333 5.33333333 -2.66666667 2.66666667 0 0 Z " fill="#8DBDEF" transform="translate(264,248)"/>
<path d="M0 0 C-1.28062485 1.7074998 -2.61767557 3.37373596 -4 5 C-4.66 5 -5.32 5 -6 5 C-6.33 3.68 -6.66 2.36 -7 1 C-4.53721199 -0.231394 -2.7204945 -0.07159196 0 0 Z " fill="#78AAE5" transform="translate(306,244)"/>
<path d="M0 0 C0.66 0.33 1.32 0.66 2 1 C1.48792856 4.75519057 0.7824918 7.66688525 -1 11 C-1.0270043 9.54176788 -1.04639787 8.08339325 -1.0625 6.625 C-1.07410156 5.81289062 -1.08570313 5.00078125 -1.09765625 4.1640625 C-1 2 -1 2 0 0 Z " fill="#8EBAE5" transform="translate(173,225)"/>
<path d="M0 0 C1.65 0.33 3.3 0.66 5 1 C3 4 3 4 -0.125 4.6875 C-1.07375 4.790625 -2.0225 4.89375 -3 5 C-3 4.01 -3 3.02 -3 2 C-2.01 2 -1.02 2 0 2 C0 1.34 0 0.68 0 0 Z " fill="#5F9FEB" transform="translate(260,161)"/>
<path d="M0 0 C1.32 0.33 2.64 0.66 4 1 C4 1.66 4 2.32 4 3 C3.34 3 2.68 3 2 3 C1.67 3.66 1.34 4.32 1 5 C-0.32 4.67 -1.64 4.34 -3 4 C-2.01 2.68 -1.02 1.36 0 0 Z " fill="#3989E8" transform="translate(267,130)"/>
<path d="M0 0 C3.34373475 0.55728913 6.03312999 1.35173889 9 3 C9 3.66 9 4.32 9 5 C3.46153846 4.50769231 3.46153846 4.50769231 1.125 1.9375 C0.75375 1.298125 0.3825 0.65875 0 0 Z " fill="#88B8E8" transform="translate(198,338)"/>
<path d="M0 0 C2.31 0.66 4.62 1.32 7 2 C6.34 3.32 5.68 4.64 5 6 C4.34 6 3.68 6 3 6 C2.67 5.01 2.34 4.02 2 3 C1.34 2.67 0.68 2.34 0 2 C0 1.34 0 0.68 0 0 Z " fill="#639FEB" transform="translate(258,282)"/>
<path d="M0 0 C0.66 0.33 1.32 0.66 2 1 C1.01 2.485 1.01 2.485 0 4 C0.33 4.66 0.66 5.32 1 6 C-0.65 6.66 -2.3 7.32 -4 8 C-2.25 2.25 -2.25 2.25 0 0 Z " fill="#3688E7" transform="translate(300,213)"/>
<path d="M0 0 C0 2 0 4 0 6 C-2.31 6.66 -4.62 7.32 -7 8 C-5.61918777 3.8575633 -3.40174442 2.67796901 0 0 Z " fill="#86B7EC" transform="translate(305,207)"/>
<path d="M0 0 C0.33 0.66 0.66 1.32 1 2 C0.0625 4.625 0.0625 4.625 -1 7 C-2.32 6.34 -3.64 5.68 -5 5 C-3.35 3.35 -1.7 1.7 0 0 Z " fill="#368AE8" transform="translate(317,197)"/>
<path d="M0 0 C2.4294516 3.6441774 2.16179575 5.71241272 2 10 C0.68 9.34 -0.64 8.68 -2 8 C-1.34 5.36 -0.68 2.72 0 0 Z " fill="#3382DE" transform="translate(104,126)"/>
<path d="M0 0 C0.66 0.33 1.32 0.66 2 1 C0 4 0 4 -1.9453125 4.51171875 C-2.66460937 4.56972656 -3.38390625 4.62773438 -4.125 4.6875 C-6.043125 4.8421875 -6.043125 4.8421875 -8 5 C-5.45378681 2.99940392 -3.01962385 1.20784954 0 0 Z " fill="#639CDE" transform="translate(297,113)"/>
<path d="M0 0 C0.66 0 1.32 0 2 0 C1.67 2.64 1.34 5.28 1 8 C0.34 8 -0.32 8 -1 8 C-1.125 2.25 -1.125 2.25 0 0 Z " fill="#478CD8" transform="translate(82,98)"/>
<path d="M0 0 C1.32 0.66 2.64 1.32 4 2 C-2.625 5.125 -2.625 5.125 -6 4 C-4.35 3.67 -2.7 3.34 -1 3 C-0.67 2.01 -0.34 1.02 0 0 Z " fill="#5494DD" transform="translate(300,381)"/>
<path d="M0 0 C1.32 0 2.64 0 4 0 C4 0.66 4 1.32 4 2 C4.99 2.33 5.98 2.66 7 3 C6.67 3.66 6.34 4.32 6 5 C3.5625 4.1875 3.5625 4.1875 1 3 C0.67 2.01 0.34 1.02 0 0 Z " fill="#3C86DF" transform="translate(224,353)"/>
<path d="M0 0 C0 0.66 0 1.32 0 2 C-1.32 2.33 -2.64 2.66 -4 3 C-4 3.66 -4 4.32 -4 5 C-5.65 4.67 -7.3 4.34 -9 4 C-3 0 -3 0 0 0 Z " fill="#81B9E8" transform="translate(303,338)"/>
<path d="M0 0 C2.4375 0.8125 2.4375 0.8125 5 2 C5.33 2.99 5.66 3.98 6 5 C6.66 5.33 7.32 5.66 8 6 C5 6 5 6 2.3125 3.5625 C0 1 0 1 0 0 Z " fill="#75A8E7" transform="translate(217,281)"/>
<path d="M0 0 C3.36720387 1.39332574 4.9859524 2.9789286 7 6 C4 6 4 6 1.8125 4.125 C0 2 0 2 0 0 Z " fill="#558FDA" transform="translate(220,249)"/>
<path d="M0 0 C0.33 0.66 0.66 1.32 1 2 C0.0625 4.625 0.0625 4.625 -1 7 C-2.32 6.34 -3.64 5.68 -5 5 C-3.35 3.35 -1.7 1.7 0 0 Z " fill="#5E9DE7" transform="translate(270,242)"/>
<path d="M0 0 C0.556875 0.28875 1.11375 0.5775 1.6875 0.875 C4.08494645 2.0413253 6.51596939 3.0339881 9 4 C9 4.66 9 5.32 9 6 C6.75 6.375 6.75 6.375 4 6 C1.6875 3 1.6875 3 0 0 Z " fill="#8AB6EE" transform="translate(243,137)"/>
<path d="M0 0 C-1.26607607 0.53229326 -2.53810412 1.05044544 -3.8125 1.5625 C-4.52019531 1.85253906 -5.22789062 2.14257812 -5.95703125 2.44140625 C-8 3 -8 3 -11 2 C-7.75267347 -1.24732653 -4.25451414 -1.41817138 0 0 Z " fill="#7CA8DE" transform="translate(325,130)"/>
<path d="M0 0 C0.33 0.99 0.66 1.98 1 3 C0.67 3.66 0.34 4.32 0 5 C-2.31 5 -4.62 5 -7 5 C-6.67 4.34 -6.34 3.68 -6 3 C-2.9375 2.375 -2.9375 2.375 0 2 C0 1.34 0 0.68 0 0 Z " fill="#4593E3" transform="translate(81,126)"/>
<path d="M0 0 C0.66 0.99 1.32 1.98 2 3 C1.01 3.33 0.02 3.66 -1 4 C-1.33 4.99 -1.66 5.98 -2 7 C-2.66 6.01 -3.32 5.02 -4 4 C-3 2 -3 2 0 0 Z " fill="#2797F7" transform="translate(84,109)"/>
<path d="M0 0 C1.32 0 2.64 0 4 0 C4 0.66 4 1.32 4 2 C4.66 2.33 5.32 2.66 6 3 C2.25 4.125 2.25 4.125 0 3 C0 2.01 0 1.02 0 0 Z " fill="#348CEF" transform="translate(197,340)"/>
<path d="M0 0 C2.97 0.33 5.94 0.66 9 1 C7.68 1.99 6.36 2.98 5 4 C3 3 3 3 0 0 Z " fill="#3586EB" transform="translate(171,331)"/>
<path d="M0 0 C1.5625 1.25 1.5625 1.25 3 3 C2.8125 5.125 2.8125 5.125 2 7 C1.01 7.495 1.01 7.495 0 8 C-1.125 2.25 -1.125 2.25 0 0 Z " fill="#5FA3EC" transform="translate(266,276)"/>
<path d="M0 0 C0.66 0 1.32 0 2 0 C2 0.66 2 1.32 2 2 C2.66 2.33 3.32 2.66 4 3 C2.02 3 0.04 3 -2 3 C-1.34 2.01 -0.68 1.02 0 0 Z M-3 3 C-2.34 3.33 -1.68 3.66 -1 4 C-1.33 4.99 -1.66 5.98 -2 7 C-2 6.34 -2 5.68 -2 5 C-2.66 4.67 -3.32 4.34 -4 4 C-3.67 3.67 -3.34 3.34 -3 3 Z " fill="#348CEB" transform="translate(310,233)"/>
<path d="M0 0 C0.99 0.33 1.98 0.66 3 1 C3 1.66 3 2.32 3 3 C1.68 3 0.36 3 -1 3 C-1.33 3.66 -1.66 4.32 -2 5 C-2.66 4.34 -3.32 3.68 -4 3 C-2.1875 1.4375 -2.1875 1.4375 0 0 Z " fill="#75B0E8" transform="translate(339,174)"/>
<path d="M0 0 C1.98 0 3.96 0 6 0 C6.33 1.65 6.66 3.3 7 5 C4.11562221 3.70700306 2.12780579 2.34058637 0 0 Z " fill="#8FBCEB" transform="translate(222,153)"/>
<path d="M0 0 C0.33 0.99 0.66 1.98 1 3 C0.01 4.485 0.01 4.485 -1 6 C-1.99 5.67 -2.98 5.34 -4 5 C-3 2 -3 2 0 0 Z " fill="#4D90E3" transform="translate(279,122)"/>
<path d="M0 0 C1.0209375 0.2165625 1.0209375 0.2165625 2.0625 0.4375 C5.36273082 1.06945909 8.67144426 1.54313941 12 2 C12 2.33 12 2.66 12 3 C10.56344146 3.08131463 9.1255517 3.13933559 7.6875 3.1875 C6.48673828 3.23970703 6.48673828 3.23970703 5.26171875 3.29296875 C2.52148416 2.93801608 1.70828921 2.10633718 0 0 Z " fill="#3A88F0" transform="translate(156,121)"/>
</svg>
